<svg width="20" height="14" viewBox="0 0 20 14" fill="none" xmlns="http://www.w3.org/2000/svg">
<path d="M2.82051 0C2.07247 0 1.35506 0.289731 0.826109 0.805456C0.29716 1.32118 0 2.02065 0 2.75V11.25C0 11.9793 0.29716 12.6788 0.826109 13.1945C1.35506 13.7103 2.07247 14 2.82051 14H11.5385C12.2865 14 13.0039 13.7103 13.5329 13.1945C14.0618 12.6788 14.359 11.9793 14.359 11.25V9.656L17.8656 12.701C18.6913 13.418 20 12.846 20 11.767V1.865C20 0.785 18.6913 0.214 17.8656 0.931L14.359 3.976V2.75C14.359 2.02065 14.0618 1.32118 13.5329 0.805456C13.0039 0.289731 12.2865 0 11.5385 0H2.82051Z" fill="#5228F4"/>
</svg>
