<svg width="129" height="28" viewBox="0 0 129 28" fill="none" xmlns="http://www.w3.org/2000/svg">
<path d="M128.954 22.0801V25.6001H125.434V22.0801H128.954Z" fill="white"/>
<path d="M103.456 7.29619V17.8242H113.472V21.9202H99.3281V3.55219H112.832V7.29619H103.456ZM123.008 9.66419V13.7602H119.328V27.5842H115.232V0.992188H119.328V9.66419H123.008Z" fill="white"/>
<path d="M77.5825 21.3119V3.64787H81.6785V17.1199H91.2785V21.3119H77.5825ZM97.6145 27.5839H93.3905V0.671875H97.6145V27.5839Z" fill="white"/>
<path d="M63.3194 1.76014C63.8954 1.76014 64.4394 1.87747 64.9514 2.11214C65.4847 2.32547 65.9434 2.6348 66.3274 3.04014C66.7327 3.44547 67.0421 3.9148 67.2554 4.44814C67.4901 4.98147 67.6074 5.55747 67.6074 6.17614V10.5921C67.6074 11.2108 67.4901 11.7868 67.2554 12.3201C67.0421 12.8535 66.7327 13.3228 66.3274 13.7281C65.9434 14.1335 65.4847 14.4535 64.9514 14.6881C64.4394 14.9015 63.8954 15.0081 63.3194 15.0081H59.1914C58.6154 15.0081 58.0501 14.9015 57.4954 14.6881C56.9621 14.4535 56.4927 14.1335 56.0874 13.7281C55.6821 13.3228 55.3514 12.8535 55.0954 12.3201C54.8607 11.7868 54.7434 11.2108 54.7434 10.5921V6.17614C54.7434 5.55747 54.8607 4.98147 55.0954 4.44814C55.3514 3.9148 55.6821 3.44547 56.0874 3.04014C56.4927 2.6348 56.9621 2.32547 57.4954 2.11214C58.0501 1.87747 58.6154 1.76014 59.1914 1.76014H63.3194ZM63.8634 9.69614V7.07214C63.8634 6.51747 63.6821 6.06947 63.3194 5.72814C62.9567 5.36547 62.5087 5.18414 61.9754 5.18414H60.5354C60.0021 5.18414 59.5327 5.36547 59.1274 5.72814C58.7434 6.06947 58.5514 6.51747 58.5514 7.07214V9.69614C58.5514 10.2508 58.7434 10.7095 59.1274 11.0721C59.5327 11.4348 60.0021 11.6161 60.5354 11.6161H61.9754C62.5087 11.6161 62.9567 11.4348 63.3194 11.0721C63.6821 10.7095 63.8634 10.2508 63.8634 9.69614ZM71.9914 0.640137H75.7674V15.7121H71.9914V0.640137ZM75.8634 27.5841H58.0714V17.3761H62.1354V20.0001H72.0234V17.3761H75.8634V27.5841ZM62.1354 24.7681H72.0234V22.5281H62.1354V24.7681Z" fill="white"/>
<path d="M42.7203 12.3841H53.0243V15.9361H27.9043V12.3841H38.5603V10.2081H31.2643V0.704102H49.5363V10.2081H42.7203V12.3841ZM30.8163 18.2401H50.2083V21.2801C50.187 22.0694 50.1016 22.8161 49.9523 23.5201C49.8243 24.2241 49.675 24.8428 49.5043 25.3761C49.3123 25.9948 49.099 26.5708 48.8643 27.1041H44.9283C45.291 26.4001 45.5683 25.7281 45.7603 25.0881C45.9523 24.4694 46.091 23.9254 46.1763 23.4561C46.2616 22.9014 46.3043 22.3894 46.3043 21.9201H30.8163V18.2401ZM46.0163 6.9121V4.0321H34.8483V6.9121H46.0163Z" fill="white"/>
<path d="M10.1709 6.49614C10.1496 6.81614 10.1283 7.29614 10.1069 7.93614C10.1069 8.5548 10.1389 9.2588 10.2029 10.0481C10.2883 10.8375 10.4163 11.6695 10.5869 12.5441C10.7789 13.3975 11.0563 14.2188 11.4189 15.0081C11.8029 15.7761 12.2936 16.4801 12.8909 17.1201C13.4883 17.7388 14.2349 18.1975 15.1309 18.4961V22.2401C14.1069 22.0481 13.1363 21.6961 12.2189 21.1841C11.4296 20.7575 10.6296 20.1601 9.81894 19.3921C9.00828 18.6241 8.36828 17.6001 7.89894 16.3201C7.70694 16.9175 7.45094 17.4615 7.13094 17.9521C6.83228 18.4428 6.49094 18.8801 6.10694 19.2641C5.72294 19.6481 5.31761 19.9895 4.89094 20.2881C4.48561 20.5868 4.08028 20.8428 3.67494 21.0561C2.71494 21.5895 1.70161 21.9841 0.634941 22.2401V18.4961C1.50961 18.1975 2.24561 17.7388 2.84294 17.1201C3.46161 16.4801 3.95227 15.7761 4.31494 15.0081C4.69894 14.2188 4.98694 13.3975 5.17894 12.5441C5.37094 11.6695 5.50961 10.8375 5.59494 10.0481C5.68028 9.2588 5.71228 8.5548 5.69094 7.93614C5.69094 7.29614 5.68028 6.81614 5.65894 6.49614H0.314941V3.07214H15.5149V6.49614H10.1709ZM17.0189 0.640137H20.4429V27.5841H17.0189V14.2721H13.4029V9.72814H17.0189V0.640137ZM26.1709 0.640137V27.5841H22.3309V0.640137H26.1709Z" fill="white"/>
</svg>
