<svg width="100" height="24" viewBox="0 0 100 24" fill="none" xmlns="http://www.w3.org/2000/svg">
<mask id="path-1-outside-1_568_238" maskUnits="userSpaceOnUse" x="0" y="0" width="100" height="24" fill="black">
<rect fill="white" width="100" height="24"/>
<path d="M13.167 6.603H9.48696C9.47162 6.833 9.46396 7.16267 9.46396 7.592C9.46396 8.006 9.48696 8.47367 9.53296 8.995C9.59429 9.51633 9.69396 10.0607 9.83196 10.628C9.98529 11.18 10.2 11.7167 10.476 12.238C10.752 12.744 11.1046 13.204 11.534 13.618C11.9633 14.032 12.4923 14.3463 13.121 14.561V17.229C12.3543 17.045 11.6336 16.769 10.959 16.401C10.6676 16.2477 10.3763 16.0637 10.085 15.849C9.79362 15.6343 9.50996 15.389 9.23396 15.113C8.97329 14.837 8.72796 14.5303 8.49796 14.193C8.28329 13.8403 8.10696 13.4493 7.96896 13.02C7.67762 13.94 7.24829 14.676 6.68096 15.228C6.11362 15.7647 5.53862 16.1863 4.95596 16.493C4.28129 16.8457 3.56062 17.091 2.79396 17.229V14.561C3.42262 14.3463 3.95162 14.032 4.38096 13.618C4.81029 13.204 5.15529 12.744 5.41596 12.238C5.69196 11.7167 5.89129 11.18 6.01396 10.628C6.15196 10.0607 6.24396 9.51633 6.28996 8.995C6.35129 8.47367 6.37429 8.006 6.35896 7.592C6.35896 7.16267 6.35129 6.833 6.33596 6.603H2.77096V4.027H13.167V6.603ZM18.158 8.696V2.486H14.961V21.599H18.158V11.663H21.056V8.696H18.158ZM22.9067 3.337H32.6587V12.813H22.9067V3.337ZM29.9447 10.099V6.028H25.6207V10.099H29.9447ZM40.7317 6.143V8.857H38.1327V12.882H35.3957V2.21H38.1327V6.143H40.7317ZM24.3787 14.768H38.2247V17.39C38.1941 17.9573 38.1327 18.494 38.0407 19C37.9487 19.506 37.8414 19.9507 37.7187 20.334C37.5807 20.7787 37.4351 21.1927 37.2817 21.576H34.4527C34.7134 21.07 34.9127 20.564 35.0507 20.058C35.1887 19.5673 35.2884 19.1227 35.3497 18.724C35.4111 18.264 35.4417 17.8193 35.4417 17.39H24.3787V14.768ZM48.7348 3.015C49.1488 3.015 49.5398 3.09933 49.9078 3.268C50.2912 3.42133 50.6208 3.64367 50.8968 3.935C51.1882 4.22633 51.4105 4.56367 51.5638 4.947C51.7325 5.33033 51.8168 5.74433 51.8168 6.189V9.363C51.8168 9.80767 51.7325 10.2217 51.5638 10.605C51.4105 10.9883 51.1882 11.3257 50.8968 11.617C50.6208 11.9083 50.2912 12.1383 49.9078 12.307C49.5398 12.4603 49.1488 12.537 48.7348 12.537H45.7678C45.3538 12.537 44.9475 12.4603 44.5488 12.307C44.1655 12.1383 43.8282 11.9083 43.5368 11.617C43.2455 11.3257 43.0078 10.9883 42.8238 10.605C42.6552 10.2217 42.5708 9.80767 42.5708 9.363V6.189C42.5708 5.74433 42.6552 5.33033 42.8238 4.947C43.0078 4.56367 43.2455 4.22633 43.5368 3.935C43.8282 3.64367 44.1655 3.42133 44.5488 3.268C44.9475 3.09933 45.3538 3.015 45.7678 3.015H48.7348ZM49.1258 8.719V6.833C49.1258 6.43433 48.9955 6.11233 48.7348 5.867C48.4742 5.60633 48.1522 5.476 47.7688 5.476H46.7338C46.3505 5.476 46.0132 5.60633 45.7218 5.867C45.4458 6.11233 45.3078 6.43433 45.3078 6.833V8.719C45.3078 9.11767 45.4458 9.44733 45.7218 9.708C46.0132 9.96867 46.3505 10.099 46.7338 10.099H47.7688C48.1522 10.099 48.4742 9.96867 48.7348 9.708C48.9955 9.44733 49.1258 9.11767 49.1258 8.719ZM54.9678 2.21H57.6818V13.043H54.9678V2.21ZM57.7508 21.576H44.9628V14.239H47.8838V16.125H54.9908V14.239H57.7508V21.576ZM47.8838 19.552H54.9908V17.942H47.8838V19.552ZM59.5846 17.068V4.372H62.5286V14.055H69.4286V17.068H59.5846ZM73.9826 21.576H70.9466V2.233H73.9826V21.576ZM78.7791 6.994V14.561H85.9781V17.505H75.8121V4.303H85.5181V6.994H78.7791ZM92.8321 8.696V11.64H90.1871V21.576H87.2431V2.463H90.1871V8.696H92.8321ZM97.7036 17.62V20.15H95.1736V17.62H97.7036Z"/>
</mask>
<path d="M13.167 6.603H9.48696C9.47162 6.833 9.46396 7.16267 9.46396 7.592C9.46396 8.006 9.48696 8.47367 9.53296 8.995C9.59429 9.51633 9.69396 10.0607 9.83196 10.628C9.98529 11.18 10.2 11.7167 10.476 12.238C10.752 12.744 11.1046 13.204 11.534 13.618C11.9633 14.032 12.4923 14.3463 13.121 14.561V17.229C12.3543 17.045 11.6336 16.769 10.959 16.401C10.6676 16.2477 10.3763 16.0637 10.085 15.849C9.79362 15.6343 9.50996 15.389 9.23396 15.113C8.97329 14.837 8.72796 14.5303 8.49796 14.193C8.28329 13.8403 8.10696 13.4493 7.96896 13.02C7.67762 13.94 7.24829 14.676 6.68096 15.228C6.11362 15.7647 5.53862 16.1863 4.95596 16.493C4.28129 16.8457 3.56062 17.091 2.79396 17.229V14.561C3.42262 14.3463 3.95162 14.032 4.38096 13.618C4.81029 13.204 5.15529 12.744 5.41596 12.238C5.69196 11.7167 5.89129 11.18 6.01396 10.628C6.15196 10.0607 6.24396 9.51633 6.28996 8.995C6.35129 8.47367 6.37429 8.006 6.35896 7.592C6.35896 7.16267 6.35129 6.833 6.33596 6.603H2.77096V4.027H13.167V6.603ZM18.158 8.696V2.486H14.961V21.599H18.158V11.663H21.056V8.696H18.158ZM22.9067 3.337H32.6587V12.813H22.9067V3.337ZM29.9447 10.099V6.028H25.6207V10.099H29.9447ZM40.7317 6.143V8.857H38.1327V12.882H35.3957V2.21H38.1327V6.143H40.7317ZM24.3787 14.768H38.2247V17.39C38.1941 17.9573 38.1327 18.494 38.0407 19C37.9487 19.506 37.8414 19.9507 37.7187 20.334C37.5807 20.7787 37.4351 21.1927 37.2817 21.576H34.4527C34.7134 21.07 34.9127 20.564 35.0507 20.058C35.1887 19.5673 35.2884 19.1227 35.3497 18.724C35.4111 18.264 35.4417 17.8193 35.4417 17.39H24.3787V14.768ZM48.7348 3.015C49.1488 3.015 49.5398 3.09933 49.9078 3.268C50.2912 3.42133 50.6208 3.64367 50.8968 3.935C51.1882 4.22633 51.4105 4.56367 51.5638 4.947C51.7325 5.33033 51.8168 5.74433 51.8168 6.189V9.363C51.8168 9.80767 51.7325 10.2217 51.5638 10.605C51.4105 10.9883 51.1882 11.3257 50.8968 11.617C50.6208 11.9083 50.2912 12.1383 49.9078 12.307C49.5398 12.4603 49.1488 12.537 48.7348 12.537H45.7678C45.3538 12.537 44.9475 12.4603 44.5488 12.307C44.1655 12.1383 43.8282 11.9083 43.5368 11.617C43.2455 11.3257 43.0078 10.9883 42.8238 10.605C42.6552 10.2217 42.5708 9.80767 42.5708 9.363V6.189C42.5708 5.74433 42.6552 5.33033 42.8238 4.947C43.0078 4.56367 43.2455 4.22633 43.5368 3.935C43.8282 3.64367 44.1655 3.42133 44.5488 3.268C44.9475 3.09933 45.3538 3.015 45.7678 3.015H48.7348ZM49.1258 8.719V6.833C49.1258 6.43433 48.9955 6.11233 48.7348 5.867C48.4742 5.60633 48.1522 5.476 47.7688 5.476H46.7338C46.3505 5.476 46.0132 5.60633 45.7218 5.867C45.4458 6.11233 45.3078 6.43433 45.3078 6.833V8.719C45.3078 9.11767 45.4458 9.44733 45.7218 9.708C46.0132 9.96867 46.3505 10.099 46.7338 10.099H47.7688C48.1522 10.099 48.4742 9.96867 48.7348 9.708C48.9955 9.44733 49.1258 9.11767 49.1258 8.719ZM54.9678 2.21H57.6818V13.043H54.9678V2.21ZM57.7508 21.576H44.9628V14.239H47.8838V16.125H54.9908V14.239H57.7508V21.576ZM47.8838 19.552H54.9908V17.942H47.8838V19.552ZM59.5846 17.068V4.372H62.5286V14.055H69.4286V17.068H59.5846ZM73.9826 21.576H70.9466V2.233H73.9826V21.576ZM78.7791 6.994V14.561H85.9781V17.505H75.8121V4.303H85.5181V6.994H78.7791ZM92.8321 8.696V11.64H90.1871V21.576H87.2431V2.463H90.1871V8.696H92.8321ZM97.7036 17.62V20.15H95.1736V17.62H97.7036Z" fill="white"/>
<path d="M13.167 6.603V8.603H15.167V6.603H13.167ZM9.48696 6.603V4.603H7.61585L7.49139 6.46996L9.48696 6.603ZM9.53296 8.995L7.5407 9.17079L7.54325 9.19978L7.54665 9.22868L9.53296 8.995ZM9.83196 10.628L7.88862 11.1007L7.89626 11.1321L7.90492 11.1633L9.83196 10.628ZM10.476 12.238L8.70838 13.1738L8.7142 13.1848L8.72016 13.1957L10.476 12.238ZM11.534 13.618L12.9222 12.1783L11.534 13.618ZM13.121 14.561H15.121V13.1305L13.7672 12.6683L13.121 14.561ZM13.121 17.229L12.6542 19.1738L15.121 19.7658V17.229H13.121ZM10.959 16.401L11.9167 14.6452L11.9036 14.6381L11.8904 14.6312L10.959 16.401ZM10.085 15.849L11.2714 14.2389L11.2714 14.2389L10.085 15.849ZM9.23396 15.113L7.77993 16.4862L7.79954 16.507L7.81974 16.5272L9.23396 15.113ZM8.49796 14.193L6.78956 15.2329L6.81641 15.277L6.8455 15.3197L8.49796 14.193ZM7.96896 13.02L9.87301 12.408L7.95474 6.44001L6.06227 12.4162L7.96896 13.02ZM6.68096 15.228L8.05536 16.6809L8.06558 16.6713L8.07567 16.6615L6.68096 15.228ZM4.95596 16.493L5.88247 18.2655L5.88745 18.2628L4.95596 16.493ZM2.79396 17.229H0.793956V19.6211L3.14826 19.1974L2.79396 17.229ZM2.79396 14.561L2.14767 12.6683L0.793956 13.1305V14.561H2.79396ZM4.38096 13.618L2.99268 12.1783L2.99268 12.1783L4.38096 13.618ZM5.41596 12.238L3.64838 11.3022L3.64314 11.3121L3.63801 11.3221L5.41596 12.238ZM6.01396 10.628L4.07062 10.1553L4.06591 10.1747L4.06158 10.1941L6.01396 10.628ZM6.28996 8.995L4.30365 8.76132L4.30025 8.79022L4.2977 8.81921L6.28996 8.995ZM6.35896 7.592H4.35896V7.62902L4.36033 7.66602L6.35896 7.592ZM6.33596 6.603L8.33153 6.46996L8.20706 4.603H6.33596V6.603ZM2.77096 6.603H0.770956V8.603H2.77096V6.603ZM2.77096 4.027V2.027H0.770956V4.027H2.77096ZM13.167 4.027H15.167V2.027H13.167V4.027ZM18.158 8.696H16.158V10.696H18.158V8.696ZM18.158 2.486H20.158V0.485999H18.158V2.486ZM14.961 2.486V0.485999H12.961V2.486H14.961ZM14.961 21.599H12.961V23.599H14.961V21.599ZM18.158 21.599V23.599H20.158V21.599H18.158ZM18.158 11.663V9.663H16.158V11.663H18.158ZM21.056 11.663V13.663H23.056V11.663H21.056ZM21.056 8.696H23.056V6.696H21.056V8.696ZM13.167 4.603H9.48696V8.603H13.167V4.603ZM7.49139 6.46996C7.47159 6.76693 7.46396 7.14908 7.46396 7.592H11.464C11.464 7.17625 11.4717 6.89907 11.4825 6.73604L7.49139 6.46996ZM7.46396 7.592C7.46396 8.07759 7.49081 8.60546 7.5407 9.17079L11.5252 8.81921C11.4831 8.34188 11.464 7.93441 11.464 7.592H7.46396ZM7.54665 9.22868C7.61844 9.83884 7.73357 10.4633 7.88862 11.1007L11.7753 10.1553C11.6543 9.65808 11.5701 9.19383 11.5193 8.76132L7.54665 9.22868ZM7.90492 11.1633C8.09795 11.8582 8.36695 12.5289 8.70838 13.1738L12.2435 11.3022C12.033 10.9045 11.8726 10.5018 11.759 10.0927L7.90492 11.1633ZM8.72016 13.1957C9.09683 13.8863 9.5752 14.5076 10.1457 15.0577L12.9222 12.1783C12.634 11.9004 12.4071 11.6017 12.2317 11.2803L8.72016 13.1957ZM10.1457 15.0577C10.8091 15.6974 11.6003 16.1551 12.4747 16.4537L13.7672 12.6683C13.3843 12.5375 13.1175 12.3666 12.9222 12.1783L10.1457 15.0577ZM11.121 14.561V17.229H15.121V14.561H11.121ZM13.5877 15.2842C12.9878 15.1403 12.4327 14.9267 11.9167 14.6452L10.0013 18.1568C10.8345 18.6113 11.7208 18.9497 12.6542 19.1738L13.5877 15.2842ZM11.8904 14.6312C11.6962 14.5289 11.4897 14.3998 11.2714 14.2389L8.89856 17.4591C9.26287 17.7276 9.63904 17.9664 10.0275 18.1708L11.8904 14.6312ZM11.2714 14.2389C11.0668 14.0881 10.8587 13.9094 10.6482 13.6988L7.81974 16.5272C8.16117 16.8686 8.52047 17.1805 8.89856 17.4591L11.2714 14.2389ZM10.688 13.7398C10.5051 13.5461 10.3253 13.3228 10.1504 13.0663L6.8455 15.3197C7.1306 15.7378 7.44151 16.1279 7.77993 16.4862L10.688 13.7398ZM10.2064 13.1531C10.0806 12.9466 9.96724 12.7011 9.87301 12.408L6.0649 13.632C6.24667 14.1975 6.48593 14.7341 6.78956 15.2329L10.2064 13.1531ZM6.06227 12.4162C5.84894 13.0899 5.57062 13.5179 5.28625 13.7945L8.07567 16.6615C8.92596 15.8341 9.50631 14.7901 9.87564 13.6238L6.06227 12.4162ZM5.30656 13.7751C4.84787 14.209 4.41906 14.5155 4.02446 14.7232L5.88745 18.2628C6.65818 17.8572 7.37937 17.3204 8.05536 16.6809L5.30656 13.7751ZM4.02945 14.7205C3.53866 14.9771 3.01145 15.1577 2.43965 15.2606L3.14826 19.1974C4.1098 19.0243 5.02392 18.7142 5.88246 18.2655L4.02945 14.7205ZM4.79396 17.229V14.561H0.793956V17.229H4.79396ZM3.44024 16.4537C4.31463 16.1551 5.10583 15.6974 5.76923 15.0577L2.99268 12.1783C2.79741 12.3666 2.53061 12.5375 2.14767 12.6683L3.44024 16.4537ZM5.76923 15.0577C6.34866 14.499 6.82818 13.8638 7.1939 13.1539L3.63801 11.3221C3.4824 11.6242 3.27192 11.909 2.99268 12.1783L5.76923 15.0577ZM7.18353 13.1738C7.5397 12.501 7.80317 11.7961 7.96633 11.0619L4.06158 10.1941C3.97941 10.5639 3.84421 10.9323 3.64838 11.3022L7.18353 13.1738ZM7.95729 11.1007C8.11635 10.4468 8.22644 9.80286 8.28222 9.17079L4.2977 8.81921C4.26147 9.2298 4.18756 9.67456 4.07062 10.1553L7.95729 11.1007ZM8.27626 9.22868C8.34659 8.63083 8.37757 8.05759 8.35759 7.51798L4.36033 7.66602C4.37101 7.95441 4.35599 8.3165 4.30365 8.76132L8.27626 9.22868ZM8.35896 7.592C8.35896 7.14908 8.35132 6.76693 8.33153 6.46996L4.34039 6.73604C4.35125 6.89907 4.35896 7.17625 4.35896 7.592H8.35896ZM6.33596 4.603H2.77096V8.603H6.33596V4.603ZM4.77096 6.603V4.027H0.770956V6.603H4.77096ZM2.77096 6.027H13.167V2.027H2.77096V6.027ZM11.167 4.027V6.603H15.167V4.027H11.167ZM20.158 8.696V2.486H16.158V8.696H20.158ZM18.158 0.485999H14.961V4.486H18.158V0.485999ZM12.961 2.486V21.599H16.961V2.486H12.961ZM14.961 23.599H18.158V19.599H14.961V23.599ZM20.158 21.599V11.663H16.158V21.599H20.158ZM18.158 13.663H21.056V9.663H18.158V13.663ZM23.056 11.663V8.696H19.056V11.663H23.056ZM21.056 6.696H18.158V10.696H21.056V6.696ZM22.9067 3.337V1.337H20.9067V3.337H22.9067ZM32.6587 3.337H34.6587V1.337H32.6587V3.337ZM32.6587 12.813V14.813H34.6587V12.813H32.6587ZM22.9067 12.813H20.9067V14.813H22.9067V12.813ZM29.9447 10.099V12.099H31.9447V10.099H29.9447ZM29.9447 6.028H31.9447V4.028H29.9447V6.028ZM25.6207 6.028V4.028H23.6207V6.028H25.6207ZM25.6207 10.099H23.6207V12.099H25.6207V10.099ZM40.7317 6.143H42.7317V4.143H40.7317V6.143ZM40.7317 8.857V10.857H42.7317V8.857H40.7317ZM38.1327 8.857V6.857H36.1327V8.857H38.1327ZM38.1327 12.882V14.882H40.1327V12.882H38.1327ZM35.3957 12.882H33.3957V14.882H35.3957V12.882ZM35.3957 2.21V0.21H33.3957V2.21H35.3957ZM38.1327 2.21H40.1327V0.21H38.1327V2.21ZM38.1327 6.143H36.1327V8.143H38.1327V6.143ZM24.3787 14.768V12.768H22.3787V14.768H24.3787ZM38.2247 14.768H40.2247V12.768H38.2247V14.768ZM38.2247 17.39L40.2218 17.498L40.2247 17.444V17.39H38.2247ZM37.7187 20.334L35.8139 19.7244L35.8112 19.7328L35.8086 19.7412L37.7187 20.334ZM37.2817 21.576V23.576H38.6358L39.1387 22.3188L37.2817 21.576ZM34.4527 21.576L32.6748 20.6601L31.1726 23.576H34.4527V21.576ZM35.0507 20.058L33.1254 19.5165L33.1233 19.5241L33.1212 19.5318L35.0507 20.058ZM35.3497 18.724L37.3265 19.0281L37.3295 19.0083L37.3322 18.9883L35.3497 18.724ZM35.4417 17.39H37.4417V15.39H35.4417V17.39ZM24.3787 17.39H22.3787V19.39H24.3787V17.39ZM22.9067 5.337H32.6587V1.337H22.9067V5.337ZM30.6587 3.337V12.813H34.6587V3.337H30.6587ZM32.6587 10.813H22.9067V14.813H32.6587V10.813ZM24.9067 12.813V3.337H20.9067V12.813H24.9067ZM31.9447 10.099V6.028H27.9447V10.099H31.9447ZM29.9447 4.028H25.6207V8.028H29.9447V4.028ZM23.6207 6.028V10.099H27.6207V6.028H23.6207ZM25.6207 12.099H29.9447V8.099H25.6207V12.099ZM38.7317 6.143V8.857H42.7317V6.143H38.7317ZM40.7317 6.857H38.1327V10.857H40.7317V6.857ZM36.1327 8.857V12.882H40.1327V8.857H36.1327ZM38.1327 10.882H35.3957V14.882H38.1327V10.882ZM37.3957 12.882V2.21H33.3957V12.882H37.3957ZM35.3957 4.21H38.1327V0.21H35.3957V4.21ZM36.1327 2.21V6.143H40.1327V2.21H36.1327ZM38.1327 8.143H40.7317V4.143H38.1327V8.143ZM24.3787 16.768H38.2247V12.768H24.3787V16.768ZM36.2247 14.768V17.39H40.2247V14.768H36.2247ZM36.2277 17.282C36.2011 17.7741 36.1485 18.2268 36.073 18.6422L40.0085 19.3578C40.117 18.7612 40.1871 18.1405 40.2218 17.498L36.2277 17.282ZM36.073 18.6422C35.9925 19.0851 35.9041 19.4425 35.8139 19.7244L39.6236 20.9436C39.7787 20.4588 39.905 19.9269 40.0085 19.3578L36.073 18.6422ZM35.8086 19.7412C35.6844 20.1415 35.5561 20.5049 35.4248 20.8332L39.1387 22.3188C39.314 21.8804 39.4771 21.4159 39.6289 20.9268L35.8086 19.7412ZM37.2817 19.576H34.4527V23.576H37.2817V19.576ZM36.2307 22.4919C36.55 21.8721 36.8025 21.236 36.9803 20.5842L33.1212 19.5318C33.023 19.892 32.8768 20.2679 32.6748 20.6601L36.2307 22.4919ZM36.976 20.5995C37.1306 20.0501 37.2501 19.5245 37.3265 19.0281L33.373 18.4199C33.3267 18.7208 33.2469 19.0846 33.1254 19.5165L36.976 20.5995ZM37.3322 18.9883C37.4043 18.4477 37.4417 17.9145 37.4417 17.39H33.4417C33.4417 17.7242 33.4179 18.0803 33.3673 18.4597L37.3322 18.9883ZM35.4417 15.39H24.3787V19.39H35.4417V15.39ZM26.3787 17.39V14.768H22.3787V17.39H26.3787ZM49.9078 3.268L49.0745 5.08613L49.1193 5.10666L49.1651 5.12495L49.9078 3.268ZM50.8968 3.935L49.4449 5.31049L49.4635 5.33011L49.4826 5.34921L50.8968 3.935ZM51.5638 4.947L49.7069 5.68978L49.7195 5.72135L49.7332 5.75248L51.5638 4.947ZM51.5638 10.605L49.7332 9.79952L49.7195 9.83065L49.7069 9.86222L51.5638 10.605ZM50.8968 11.617L49.4826 10.2028L49.4635 10.2219L49.4449 10.2415L50.8968 11.617ZM49.9078 12.307L50.6771 14.1532L50.6953 14.1456L50.7133 14.1376L49.9078 12.307ZM44.5488 12.307L43.7434 14.1376L43.7867 14.1567L43.8309 14.1737L44.5488 12.307ZM43.5368 11.617L42.1226 13.0312L43.5368 11.617ZM42.8238 10.605L40.9932 11.4105L41.0065 11.4407L41.0208 11.4705L42.8238 10.605ZM42.8238 4.947L41.0208 4.08154L41.0065 4.1113L40.9932 4.14152L42.8238 4.947ZM43.5368 3.935L42.1226 2.52079L43.5368 3.935ZM44.5488 3.268L45.2916 5.12495L45.3099 5.11762L45.3281 5.10993L44.5488 3.268ZM48.7348 5.867L47.3206 7.28121L47.342 7.30264L47.3641 7.3234L48.7348 5.867ZM45.7218 5.867L47.0506 7.36182L47.0554 7.35748L45.7218 5.867ZM45.7218 9.708L44.3486 11.162L44.3682 11.1805L44.3882 11.1985L45.7218 9.708ZM54.9678 2.21V0.21H52.9678V2.21H54.9678ZM57.6818 2.21H59.6818V0.21H57.6818V2.21ZM57.6818 13.043V15.043H59.6818V13.043H57.6818ZM54.9678 13.043H52.9678V15.043H54.9678V13.043ZM57.7508 21.576V23.576H59.7508V21.576H57.7508ZM44.9628 21.576H42.9628V23.576H44.9628V21.576ZM44.9628 14.239V12.239H42.9628V14.239H44.9628ZM47.8838 14.239H49.8838V12.239H47.8838V14.239ZM47.8838 16.125H45.8838V18.125H47.8838V16.125ZM54.9908 16.125V18.125H56.9908V16.125H54.9908ZM54.9908 14.239V12.239H52.9908V14.239H54.9908ZM57.7508 14.239H59.7508V12.239H57.7508V14.239ZM47.8838 19.552H45.8838V21.552H47.8838V19.552ZM54.9908 19.552V21.552H56.9908V19.552H54.9908ZM54.9908 17.942H56.9908V15.942H54.9908V17.942ZM47.8838 17.942V15.942H45.8838V17.942H47.8838ZM48.7348 5.015C48.8679 5.015 48.974 5.04007 49.0745 5.08613L50.7411 1.44987C50.1056 1.1586 49.4297 1.015 48.7348 1.015V5.015ZM49.1651 5.12495C49.2879 5.17411 49.3735 5.23513 49.4449 5.31049L52.3487 2.55951C51.8681 2.0522 51.2944 1.66856 50.6506 1.41105L49.1651 5.12495ZM49.4826 5.34921C49.582 5.44861 49.6539 5.55739 49.7069 5.68978L53.4208 4.20422C53.1671 3.56994 52.7943 3.00405 52.3111 2.52079L49.4826 5.34921ZM49.7332 5.75248C49.7834 5.86649 49.8168 6.00424 49.8168 6.189H53.8168C53.8168 5.48442 53.6816 4.79418 53.3945 4.14152L49.7332 5.75248ZM49.8168 6.189V9.363H53.8168V6.189H49.8168ZM49.8168 9.363C49.8168 9.54776 49.7834 9.68551 49.7332 9.79952L53.3945 11.4105C53.6816 10.7578 53.8168 10.0676 53.8168 9.363H49.8168ZM49.7069 9.86222C49.6539 9.99461 49.582 10.1034 49.4826 10.2028L52.3111 13.0312C52.7943 12.5479 53.1671 11.9821 53.4208 11.3478L49.7069 9.86222ZM49.4449 10.2415C49.3599 10.3312 49.2529 10.4101 49.1024 10.4764L50.7133 14.1376C51.3294 13.8665 51.8817 13.4854 52.3487 12.9925L49.4449 10.2415ZM49.1386 10.4608C49.0237 10.5087 48.8951 10.537 48.7348 10.537V14.537C49.4025 14.537 50.0559 14.412 50.6771 14.1532L49.1386 10.4608ZM48.7348 10.537H45.7678V14.537H48.7348V10.537ZM45.7678 10.537C45.6071 10.537 45.4437 10.5084 45.2668 10.4403L43.8309 14.1737C44.4513 14.4123 45.1006 14.537 45.7678 14.537V10.537ZM45.3543 10.4764C45.1941 10.4059 45.0641 10.3158 44.951 10.2028L42.1226 13.0312C42.5922 13.5008 43.1369 13.8708 43.7434 14.1376L45.3543 10.4764ZM44.951 10.2028C44.8245 10.0762 44.7163 9.92593 44.6269 9.73954L41.0208 11.4705C41.2993 12.0507 41.6665 12.5751 42.1226 13.0312L44.951 10.2028ZM44.6545 9.79952C44.6043 9.68551 44.5708 9.54776 44.5708 9.363H40.5708C40.5708 10.0676 40.706 10.7578 40.9932 11.4105L44.6545 9.79952ZM44.5708 9.363V6.189H40.5708V9.363H44.5708ZM44.5708 6.189C44.5708 6.00424 44.6043 5.86649 44.6545 5.75248L40.9932 4.14152C40.706 4.79418 40.5708 5.48442 40.5708 6.189H44.5708ZM44.6269 5.81246C44.7163 5.62607 44.8245 5.47579 44.951 5.34921L42.1226 2.52079C41.6665 2.97688 41.2993 3.50126 41.0208 4.08154L44.6269 5.81246ZM44.951 5.34921C45.0505 5.24981 45.1592 5.17791 45.2916 5.12495L43.8061 1.41105C43.1718 1.66476 42.6059 2.03752 42.1226 2.52079L44.951 5.34921ZM45.3281 5.10993C45.4917 5.04073 45.6337 5.015 45.7678 5.015V1.015C45.0739 1.015 44.4033 1.15793 43.7696 1.42607L45.3281 5.10993ZM45.7678 5.015H48.7348V1.015H45.7678V5.015ZM51.1258 8.719V6.833H47.1258V8.719H51.1258ZM51.1258 6.833C51.1258 5.9522 50.8156 5.07891 50.1056 4.4106L47.3641 7.3234C47.2909 7.25452 47.2206 7.15757 47.1742 7.04289C47.1297 6.93293 47.1258 6.85325 47.1258 6.833H51.1258ZM50.149 4.45278C49.497 3.80069 48.659 3.476 47.7688 3.476V7.476C47.73 7.476 47.6484 7.4685 47.5475 7.42764C47.445 7.38616 47.3681 7.32867 47.3206 7.28121L50.149 4.45278ZM47.7688 3.476H46.7338V7.476H47.7688V3.476ZM46.7338 3.476C45.8478 3.476 45.0383 3.7949 44.3882 4.37652L47.0554 7.35748C47.0358 7.37506 46.9883 7.41068 46.9141 7.43935C46.8393 7.46825 46.7737 7.476 46.7338 7.476V3.476ZM44.3931 4.37218C43.6533 5.02978 43.3078 5.91425 43.3078 6.833H47.3078C47.3078 6.8673 47.3011 6.96031 47.2496 7.08034C47.1966 7.20416 47.1202 7.29996 47.0506 7.36182L44.3931 4.37218ZM43.3078 6.833V8.719H47.3078V6.833H43.3078ZM43.3078 8.719C43.3078 9.63694 43.6506 10.5028 44.3486 11.162L47.0951 8.25397C47.1473 8.30331 47.2107 8.38427 47.2562 8.49297C47.3008 8.5995 47.3078 8.68381 47.3078 8.719H43.3078ZM44.3882 11.1985C45.0383 11.7801 45.8478 12.099 46.7338 12.099V8.099C46.7737 8.099 46.8393 8.10675 46.9141 8.13565C46.9883 8.16432 47.0358 8.19994 47.0554 8.21752L44.3882 11.1985ZM46.7338 12.099H47.7688V8.099H46.7338V12.099ZM47.7688 12.099C48.659 12.099 49.497 11.7743 50.1491 11.1222L47.3206 8.29379C47.3681 8.24633 47.445 8.18884 47.5475 8.14736C47.6484 8.1065 47.73 8.099 47.7688 8.099V12.099ZM50.1491 11.1222C50.8172 10.454 51.1258 9.6004 51.1258 8.719H47.1258C47.1258 8.69781 47.13 8.62658 47.1682 8.52993C47.2076 8.4302 47.2654 8.349 47.3206 8.29379L50.1491 11.1222ZM54.9678 4.21H57.6818V0.21H54.9678V4.21ZM55.6818 2.21V13.043H59.6818V2.21H55.6818ZM57.6818 11.043H54.9678V15.043H57.6818V11.043ZM56.9678 13.043V2.21H52.9678V13.043H56.9678ZM57.7508 19.576H44.9628V23.576H57.7508V19.576ZM46.9628 21.576V14.239H42.9628V21.576H46.9628ZM44.9628 16.239H47.8838V12.239H44.9628V16.239ZM45.8838 14.239V16.125H49.8838V14.239H45.8838ZM47.8838 18.125H54.9908V14.125H47.8838V18.125ZM56.9908 16.125V14.239H52.9908V16.125H56.9908ZM54.9908 16.239H57.7508V12.239H54.9908V16.239ZM55.7508 14.239V21.576H59.7508V14.239H55.7508ZM47.8838 21.552H54.9908V17.552H47.8838V21.552ZM56.9908 19.552V17.942H52.9908V19.552H56.9908ZM54.9908 15.942H47.8838V19.942H54.9908V15.942ZM45.8838 17.942V19.552H49.8838V17.942H45.8838ZM59.5846 17.068H57.5846V19.068H59.5846V17.068ZM59.5846 4.372V2.372H57.5846V4.372H59.5846ZM62.5286 4.372H64.5286V2.372H62.5286V4.372ZM62.5286 14.055H60.5286V16.055H62.5286V14.055ZM69.4286 14.055H71.4286V12.055H69.4286V14.055ZM69.4286 17.068V19.068H71.4286V17.068H69.4286ZM73.9826 21.576V23.576H75.9826V21.576H73.9826ZM70.9466 21.576H68.9466V23.576H70.9466V21.576ZM70.9466 2.233V0.232999H68.9466V2.233H70.9466ZM73.9826 2.233H75.9826V0.232999H73.9826V2.233ZM61.5846 17.068V4.372H57.5846V17.068H61.5846ZM59.5846 6.372H62.5286V2.372H59.5846V6.372ZM60.5286 4.372V14.055H64.5286V4.372H60.5286ZM62.5286 16.055H69.4286V12.055H62.5286V16.055ZM67.4286 14.055V17.068H71.4286V14.055H67.4286ZM69.4286 15.068H59.5846V19.068H69.4286V15.068ZM73.9826 19.576H70.9466V23.576H73.9826V19.576ZM72.9466 21.576V2.233H68.9466V21.576H72.9466ZM70.9466 4.233H73.9826V0.232999H70.9466V4.233ZM71.9826 2.233V21.576H75.9826V2.233H71.9826ZM78.7791 6.994V4.994H76.7791V6.994H78.7791ZM78.7791 14.561H76.7791V16.561H78.7791V14.561ZM85.9781 14.561H87.9781V12.561H85.9781V14.561ZM85.9781 17.505V19.505H87.9781V17.505H85.9781ZM75.8121 17.505H73.8121V19.505H75.8121V17.505ZM75.8121 4.303V2.303H73.8121V4.303H75.8121ZM85.5181 4.303H87.5181V2.303H85.5181V4.303ZM85.5181 6.994V8.994H87.5181V6.994H85.5181ZM92.8321 8.696H94.8321V6.696H92.8321V8.696ZM92.8321 11.64V13.64H94.8321V11.64H92.8321ZM90.1871 11.64V9.64H88.1871V11.64H90.1871ZM90.1871 21.576V23.576H92.1871V21.576H90.1871ZM87.2431 21.576H85.2431V23.576H87.2431V21.576ZM87.2431 2.463V0.462999H85.2431V2.463H87.2431ZM90.1871 2.463H92.1871V0.462999H90.1871V2.463ZM90.1871 8.696H88.1871V10.696H90.1871V8.696ZM76.7791 6.994V14.561H80.7791V6.994H76.7791ZM78.7791 16.561H85.9781V12.561H78.7791V16.561ZM83.9781 14.561V17.505H87.9781V14.561H83.9781ZM85.9781 15.505H75.8121V19.505H85.9781V15.505ZM77.8121 17.505V4.303H73.8121V17.505H77.8121ZM75.8121 6.303H85.5181V2.303H75.8121V6.303ZM83.5181 4.303V6.994H87.5181V4.303H83.5181ZM85.5181 4.994H78.7791V8.994H85.5181V4.994ZM90.8321 8.696V11.64H94.8321V8.696H90.8321ZM92.8321 9.64H90.1871V13.64H92.8321V9.64ZM88.1871 11.64V21.576H92.1871V11.64H88.1871ZM90.1871 19.576H87.2431V23.576H90.1871V19.576ZM89.2431 21.576V2.463H85.2431V21.576H89.2431ZM87.2431 4.463H90.1871V0.462999H87.2431V4.463ZM88.1871 2.463V8.696H92.1871V2.463H88.1871ZM90.1871 10.696H92.8321V6.696H90.1871V10.696ZM97.7036 17.62H99.7036V15.62H97.7036V17.62ZM97.7036 20.15V22.15H99.7036V20.15H97.7036ZM95.1736 20.15H93.1736V22.15H95.1736V20.15ZM95.1736 17.62V15.62H93.1736V17.62H95.1736ZM95.7036 17.62V20.15H99.7036V17.62H95.7036ZM97.7036 18.15H95.1736V22.15H97.7036V18.15ZM97.1736 20.15V17.62H93.1736V20.15H97.1736ZM95.1736 19.62H97.7036V15.62H95.1736V19.62Z" fill="#643CFF" mask="url(#path-1-outside-1_568_238)"/>
</svg>
