<svg width="97" height="21" viewBox="0 0 97 21" fill="none" xmlns="http://www.w3.org/2000/svg">
<path d="M96.9973 16.8257V19.4797H94.3433V16.8257H96.9973Z" fill="white"/>
<path d="M77.7721 5.67846V13.6165H85.3241V16.7048H74.6597V2.85551H84.8416V5.67846H77.7721ZM92.5142 7.46391V10.5523H89.7395V20.9754H86.6512V0.925293H89.7395V7.46391H92.5142Z" fill="white"/>
<path d="M58.2637 16.2465V2.92796H61.352V13.0857H68.5903V16.2465H58.2637ZM73.3676 20.9755H70.1828V0.684082H73.3676V20.9755Z" fill="white"/>
<path d="M47.509 1.50463C47.9433 1.50463 48.3534 1.59309 48.7395 1.77003C49.1416 1.93088 49.4874 2.16412 49.777 2.46974C50.0826 2.77535 50.3158 3.12923 50.4767 3.53136C50.6536 3.93348 50.7421 4.36778 50.7421 4.83425V8.16388C50.7421 8.63035 50.6536 9.06465 50.4767 9.46678C50.3158 9.86891 50.0826 10.2228 49.777 10.5284C49.4874 10.834 49.1416 11.0753 48.7395 11.2522C48.3534 11.4131 47.9433 11.4935 47.509 11.4935H44.3965C43.9622 11.4935 43.5359 11.4131 43.1177 11.2522C42.7156 11.0753 42.3617 10.834 42.0561 10.5284C41.7505 10.2228 41.5012 9.86891 41.3081 9.46678C41.1312 9.06465 41.0427 8.63035 41.0427 8.16388V4.83425C41.0427 4.36778 41.1312 3.93348 41.3081 3.53136C41.5012 3.12923 41.7505 2.77535 42.0561 2.46974C42.3617 2.16412 42.7156 1.93088 43.1177 1.77003C43.5359 1.59309 43.9622 1.50463 44.3965 1.50463H47.509ZM47.9191 7.4883V5.50983C47.9191 5.09162 47.7824 4.75383 47.509 4.49646C47.2355 4.22302 46.8977 4.08629 46.4956 4.08629H45.4098C45.0077 4.08629 44.6538 4.22302 44.3482 4.49646C44.0587 4.75383 43.9139 5.09162 43.9139 5.50983V7.4883C43.9139 7.90652 44.0587 8.25235 44.3482 8.5258C44.6538 8.79924 45.0077 8.93597 45.4098 8.93597H46.4956C46.8977 8.93597 47.2355 8.79924 47.509 8.5258C47.7824 8.25235 47.9191 7.90652 47.9191 7.4883ZM54.0476 0.660156H56.8946V12.0243H54.0476V0.660156ZM56.967 20.9757H43.552V13.279H46.6162V15.2574H54.0717V13.279H56.967V20.9757ZM46.6162 18.8525H54.0717V17.1635H46.6162V18.8525Z" fill="white"/>
<path d="M21.0422 1.84241H31.2724V11.783H21.0422V1.84241ZM28.4253 8.93597V4.66536H23.8893V8.93597H28.4253ZM39.7412 4.786V7.63307H37.0148V11.8554H34.1436V0.660156H37.0148V4.786H39.7412ZM22.5864 13.8339H37.1113V16.5845C37.0791 17.1796 37.0148 17.7426 36.9183 18.2734C36.8218 18.8042 36.7092 19.2707 36.5805 19.6728C36.4357 20.1393 36.2829 20.5736 36.1221 20.9757H33.1544C33.4278 20.4449 33.6369 19.9141 33.7817 19.3833C33.9264 18.8685 34.031 18.4021 34.0953 17.9839C34.1597 17.5013 34.1919 17.0348 34.1919 16.5845H22.5864V13.8339Z" fill="white"/>
<path d="M11.4519 5.26906H7.59144C7.57536 5.51034 7.56731 5.85617 7.56731 6.30655C7.56731 6.74085 7.59144 7.23145 7.6397 7.77834C7.70404 8.32524 7.80859 8.89626 7.95336 9.49141C8.11421 10.0705 8.3394 10.6335 8.62893 11.1804C8.91847 11.7112 9.28842 12.1937 9.73881 12.628C10.1892 13.0623 10.7441 13.3921 11.4036 13.6173V16.4161C10.5994 16.223 9.84336 15.9335 9.13562 15.5475C8.83 15.3866 8.52438 15.1936 8.21876 14.9684C7.91314 14.7432 7.61557 14.4859 7.32604 14.1963C7.05259 13.9068 6.79523 13.5851 6.55395 13.2312C6.32876 12.8613 6.14378 12.4511 5.99901 12.0007C5.69339 12.9658 5.24301 13.7379 4.64786 14.317C4.05271 14.8799 3.44951 15.3223 2.83828 15.644C2.13053 16.0139 1.37453 16.2713 0.57027 16.4161V13.6173C1.22976 13.3921 1.7847 13.0623 2.23508 12.628C2.68547 12.1937 3.04738 11.7112 3.32083 11.1804C3.61036 10.6335 3.81947 10.0705 3.94815 9.49141C4.09292 8.89626 4.18943 8.32524 4.23769 7.77834C4.30203 7.23145 4.32615 6.74085 4.31007 6.30655C4.31007 5.85617 4.30203 5.51034 4.28594 5.26906H0.546143V2.56675H11.4519V5.26906ZM16.6876 7.46468V0.950195H13.3338V21.0003H16.6876V10.5772H19.7277V7.46468H16.6876Z" fill="white"/>
</svg>
