<svg width="138" height="32" viewBox="0 0 138 32" fill="none" xmlns="http://www.w3.org/2000/svg">
<mask id="path-1-outside-1_568_237" maskUnits="userSpaceOnUse" x="0" y="0" width="138" height="32" fill="black">
<rect fill="white" width="138" height="32"/>
<path d="M12.091 8.496C12.0697 8.816 12.0483 9.296 12.027 9.936C12.027 10.5547 12.059 11.2587 12.123 12.048C12.2083 12.8373 12.3363 13.6693 12.507 14.544C12.699 15.3973 12.9763 16.2187 13.339 17.008C13.723 17.776 14.2137 18.48 14.811 19.12C15.4083 19.7387 16.155 20.1973 17.051 20.496V24.24C16.027 24.048 15.0563 23.696 14.139 23.184C13.3497 22.7573 12.5497 22.16 11.739 21.392C10.9283 20.624 10.2883 19.6 9.819 18.32C9.627 18.9173 9.371 19.4613 9.051 19.952C8.75234 20.4427 8.411 20.88 8.027 21.264C7.643 21.648 7.23767 21.9893 6.811 22.288C6.40567 22.5867 6.00034 22.8427 5.595 23.056C4.635 23.5893 3.62167 23.984 2.555 24.24V20.496C3.42967 20.1973 4.16567 19.7387 4.763 19.12C5.38167 18.48 5.87234 17.776 6.235 17.008C6.619 16.2187 6.907 15.3973 7.099 14.544C7.291 13.6693 7.42967 12.8373 7.515 12.048C7.60034 11.2587 7.63234 10.5547 7.611 9.936C7.611 9.296 7.60034 8.816 7.579 8.496H2.235V5.072H17.435V8.496H12.091ZM18.939 2.64H22.363V29.584H18.939V16.272H15.323V11.728H18.939V2.64ZM28.091 2.64V29.584H24.251V2.64H28.091ZM45.4723 14.384H55.7763V17.936H30.6563V14.384H41.3123V12.208H34.0163V2.704H52.2883V12.208H45.4723V14.384ZM33.5683 20.24H52.9603V23.28C52.9389 24.0693 52.8536 24.816 52.7043 25.52C52.5763 26.224 52.4269 26.8427 52.2563 27.376C52.0643 27.9947 51.8509 28.5707 51.6163 29.104H47.6803C48.0429 28.4 48.3203 27.728 48.5123 27.088C48.7043 26.4693 48.8429 25.9253 48.9283 25.456C49.0136 24.9013 49.0563 24.3893 49.0563 23.92H33.5683V20.24ZM48.7683 8.912V6.032H37.6003V8.912H48.7683ZM66.9035 3.76C67.4795 3.76 68.0235 3.87733 68.5355 4.112C69.0688 4.32533 69.5275 4.63467 69.9115 5.04C70.3168 5.44533 70.6262 5.91467 70.8395 6.448C71.0742 6.98133 71.1915 7.55733 71.1915 8.176V12.592C71.1915 13.2107 71.0742 13.7867 70.8395 14.32C70.6262 14.8533 70.3168 15.3227 69.9115 15.728C69.5275 16.1333 69.0688 16.4533 68.5355 16.688C68.0235 16.9013 67.4795 17.008 66.9035 17.008H62.7755C62.1995 17.008 61.6342 16.9013 61.0795 16.688C60.5462 16.4533 60.0768 16.1333 59.6715 15.728C59.2662 15.3227 58.9355 14.8533 58.6795 14.32C58.4448 13.7867 58.3275 13.2107 58.3275 12.592V8.176C58.3275 7.55733 58.4448 6.98133 58.6795 6.448C58.9355 5.91467 59.2662 5.44533 59.6715 5.04C60.0768 4.63467 60.5462 4.32533 61.0795 4.112C61.6342 3.87733 62.1995 3.76 62.7755 3.76H66.9035ZM67.4475 11.696V9.072C67.4475 8.51733 67.2662 8.06933 66.9035 7.728C66.5408 7.36533 66.0928 7.184 65.5595 7.184H64.1195C63.5862 7.184 63.1168 7.36533 62.7115 7.728C62.3275 8.06933 62.1355 8.51733 62.1355 9.072V11.696C62.1355 12.2507 62.3275 12.7093 62.7115 13.072C63.1168 13.4347 63.5862 13.616 64.1195 13.616H65.5595C66.0928 13.616 66.5408 13.4347 66.9035 13.072C67.2662 12.7093 67.4475 12.2507 67.4475 11.696ZM75.5755 2.64H79.3515V17.712H75.5755V2.64ZM79.4475 29.584H61.6555V19.376H65.7195V22H75.6075V19.376H79.4475V29.584ZM65.7195 26.768H75.6075V24.528H65.7195V26.768ZM81.9987 23.312V5.648H86.0947V19.12H95.6948V23.312H81.9987ZM102.031 29.584H97.8068V2.672H102.031V29.584ZM108.704 9.296V19.824H118.72V23.92H104.576V5.552H118.08V9.296H108.704ZM128.256 11.664V15.76H124.576V29.584H120.48V2.992H124.576V11.664H128.256ZM135.034 24.08V27.6H131.514V24.08H135.034Z"/>
</mask>
<path d="M12.091 8.496C12.0697 8.816 12.0483 9.296 12.027 9.936C12.027 10.5547 12.059 11.2587 12.123 12.048C12.2083 12.8373 12.3363 13.6693 12.507 14.544C12.699 15.3973 12.9763 16.2187 13.339 17.008C13.723 17.776 14.2137 18.48 14.811 19.12C15.4083 19.7387 16.155 20.1973 17.051 20.496V24.24C16.027 24.048 15.0563 23.696 14.139 23.184C13.3497 22.7573 12.5497 22.16 11.739 21.392C10.9283 20.624 10.2883 19.6 9.819 18.32C9.627 18.9173 9.371 19.4613 9.051 19.952C8.75234 20.4427 8.411 20.88 8.027 21.264C7.643 21.648 7.23767 21.9893 6.811 22.288C6.40567 22.5867 6.00034 22.8427 5.595 23.056C4.635 23.5893 3.62167 23.984 2.555 24.24V20.496C3.42967 20.1973 4.16567 19.7387 4.763 19.12C5.38167 18.48 5.87234 17.776 6.235 17.008C6.619 16.2187 6.907 15.3973 7.099 14.544C7.291 13.6693 7.42967 12.8373 7.515 12.048C7.60034 11.2587 7.63234 10.5547 7.611 9.936C7.611 9.296 7.60034 8.816 7.579 8.496H2.235V5.072H17.435V8.496H12.091ZM18.939 2.64H22.363V29.584H18.939V16.272H15.323V11.728H18.939V2.64ZM28.091 2.64V29.584H24.251V2.64H28.091ZM45.4723 14.384H55.7763V17.936H30.6563V14.384H41.3123V12.208H34.0163V2.704H52.2883V12.208H45.4723V14.384ZM33.5683 20.24H52.9603V23.28C52.9389 24.0693 52.8536 24.816 52.7043 25.52C52.5763 26.224 52.4269 26.8427 52.2563 27.376C52.0643 27.9947 51.8509 28.5707 51.6163 29.104H47.6803C48.0429 28.4 48.3203 27.728 48.5123 27.088C48.7043 26.4693 48.8429 25.9253 48.9283 25.456C49.0136 24.9013 49.0563 24.3893 49.0563 23.92H33.5683V20.24ZM48.7683 8.912V6.032H37.6003V8.912H48.7683ZM66.9035 3.76C67.4795 3.76 68.0235 3.87733 68.5355 4.112C69.0688 4.32533 69.5275 4.63467 69.9115 5.04C70.3168 5.44533 70.6262 5.91467 70.8395 6.448C71.0742 6.98133 71.1915 7.55733 71.1915 8.176V12.592C71.1915 13.2107 71.0742 13.7867 70.8395 14.32C70.6262 14.8533 70.3168 15.3227 69.9115 15.728C69.5275 16.1333 69.0688 16.4533 68.5355 16.688C68.0235 16.9013 67.4795 17.008 66.9035 17.008H62.7755C62.1995 17.008 61.6342 16.9013 61.0795 16.688C60.5462 16.4533 60.0768 16.1333 59.6715 15.728C59.2662 15.3227 58.9355 14.8533 58.6795 14.32C58.4448 13.7867 58.3275 13.2107 58.3275 12.592V8.176C58.3275 7.55733 58.4448 6.98133 58.6795 6.448C58.9355 5.91467 59.2662 5.44533 59.6715 5.04C60.0768 4.63467 60.5462 4.32533 61.0795 4.112C61.6342 3.87733 62.1995 3.76 62.7755 3.76H66.9035ZM67.4475 11.696V9.072C67.4475 8.51733 67.2662 8.06933 66.9035 7.728C66.5408 7.36533 66.0928 7.184 65.5595 7.184H64.1195C63.5862 7.184 63.1168 7.36533 62.7115 7.728C62.3275 8.06933 62.1355 8.51733 62.1355 9.072V11.696C62.1355 12.2507 62.3275 12.7093 62.7115 13.072C63.1168 13.4347 63.5862 13.616 64.1195 13.616H65.5595C66.0928 13.616 66.5408 13.4347 66.9035 13.072C67.2662 12.7093 67.4475 12.2507 67.4475 11.696ZM75.5755 2.64H79.3515V17.712H75.5755V2.64ZM79.4475 29.584H61.6555V19.376H65.7195V22H75.6075V19.376H79.4475V29.584ZM65.7195 26.768H75.6075V24.528H65.7195V26.768ZM81.9987 23.312V5.648H86.0947V19.12H95.6948V23.312H81.9987ZM102.031 29.584H97.8068V2.672H102.031V29.584ZM108.704 9.296V19.824H118.72V23.92H104.576V5.552H118.08V9.296H108.704ZM128.256 11.664V15.76H124.576V29.584H120.48V2.992H124.576V11.664H128.256ZM135.034 24.08V27.6H131.514V24.08H135.034Z" fill="white"/>
<path d="M12.091 8.496V6.496H10.2199L10.0954 8.36296L12.091 8.496ZM12.027 9.936L10.0281 9.86937L10.027 9.90268V9.936H12.027ZM12.123 12.048L10.1295 12.2096L10.1317 12.2363L10.1346 12.263L12.123 12.048ZM12.507 14.544L10.544 14.927L10.5495 14.9551L10.5558 14.983L12.507 14.544ZM13.339 17.008L11.5216 17.843L11.5354 17.8729L11.5501 17.9024L13.339 17.008ZM14.811 19.12L13.3489 20.4846L13.3604 20.497L13.3722 20.5092L14.811 19.12ZM17.051 20.496H19.051V19.0545L17.6835 18.5986L17.051 20.496ZM17.051 24.24L16.6824 26.2057L19.051 26.6499V24.24H17.051ZM14.139 23.184L15.1137 21.4376L15.1019 21.431L15.09 21.4246L14.139 23.184ZM11.739 21.392L13.1145 19.9401L13.1145 19.9401L11.739 21.392ZM9.819 18.32L11.6968 17.6315L9.69464 12.1712L7.91495 17.708L9.819 18.32ZM9.051 19.952L7.37578 18.8595L7.35878 18.8855L7.3426 18.9121L9.051 19.952ZM8.027 21.264L9.44121 22.6782L9.44122 22.6782L8.027 21.264ZM6.811 22.288L5.66408 20.6495L5.64417 20.6635L5.6246 20.6779L6.811 22.288ZM5.595 23.056L4.66351 21.2862L4.64349 21.2967L4.62372 21.3077L5.595 23.056ZM2.555 24.24H0.555002V26.7768L3.02175 26.1848L2.555 24.24ZM2.555 20.496L1.90871 18.6033L0.555002 19.0655V20.496H2.555ZM4.763 19.12L3.32502 17.73L3.3242 17.7308L4.763 19.12ZM6.235 17.008L4.43653 16.1331L4.43146 16.1435L4.4265 16.154L6.235 17.008ZM7.099 14.544L9.05025 14.983L9.05249 14.9728L7.099 14.544ZM7.515 12.048L5.52659 11.833L5.52659 11.833L7.515 12.048ZM7.611 9.936H5.611V9.97047L5.61219 10.0049L7.611 9.936ZM7.579 8.496L9.57457 8.36296L9.45011 6.496H7.579V8.496ZM2.235 8.496H0.235002V10.496H2.235V8.496ZM2.235 5.072V3.072H0.235002V5.072H2.235ZM17.435 5.072H19.435V3.072H17.435V5.072ZM17.435 8.496V10.496H19.435V8.496H17.435ZM18.939 2.64V0.639999H16.939V2.64H18.939ZM22.363 2.64H24.363V0.639999H22.363V2.64ZM22.363 29.584V31.584H24.363V29.584H22.363ZM18.939 29.584H16.939V31.584H18.939V29.584ZM18.939 16.272H20.939V14.272H18.939V16.272ZM15.323 16.272H13.323V18.272H15.323V16.272ZM15.323 11.728V9.728H13.323V11.728H15.323ZM18.939 11.728V13.728H20.939V11.728H18.939ZM28.091 2.64H30.091V0.639999H28.091V2.64ZM28.091 29.584V31.584H30.091V29.584H28.091ZM24.251 29.584H22.251V31.584H24.251V29.584ZM24.251 2.64V0.639999H22.251V2.64H24.251ZM10.0954 8.36296C10.0718 8.71734 10.0496 9.22441 10.0281 9.86937L14.0259 10.0026C14.0471 9.36759 14.0675 8.91465 14.0866 8.62904L10.0954 8.36296ZM10.027 9.936C10.027 10.6211 10.0623 11.3806 10.1295 12.2096L14.1165 11.8864C14.0557 11.1368 14.027 10.4883 14.027 9.936H10.027ZM10.1346 12.263C10.2267 13.115 10.3638 14.0033 10.544 14.927L14.47 14.161C14.3089 13.3353 14.19 12.5597 14.1114 11.833L10.1346 12.263ZM10.5558 14.983C10.7782 15.9717 11.1002 16.9258 11.5216 17.843L15.1564 16.173C14.8524 15.5115 14.6198 14.823 14.4582 14.105L10.5558 14.983ZM11.5501 17.9024C12.0216 18.8454 12.6232 19.7072 13.3489 20.4846L16.2731 17.7554C15.8041 17.2528 15.4244 16.7066 15.1279 16.1136L11.5501 17.9024ZM13.3722 20.5092C14.2148 21.3819 15.2474 22.003 16.4185 22.3934L17.6835 18.5986C17.0626 18.3917 16.6018 18.0954 16.2498 17.7308L13.3722 20.5092ZM15.051 20.496V24.24H19.051V20.496H15.051ZM17.4196 22.2743C16.61 22.1225 15.8438 21.8451 15.1137 21.4376L13.1643 24.9304C14.2689 25.5469 15.444 25.9735 16.6824 26.2057L17.4196 22.2743ZM15.09 21.4246C14.4873 21.0988 13.8274 20.6155 13.1145 19.9401L10.3635 22.8439C11.2719 23.7045 12.2121 24.4159 13.188 24.9434L15.09 21.4246ZM13.1145 19.9401C12.572 19.4262 12.0829 18.6847 11.6968 17.6315L7.94125 19.0085C8.49376 20.5153 9.28467 21.8218 10.3635 22.8439L13.1145 19.9401ZM7.91495 17.708C7.77362 18.1477 7.59178 18.5283 7.37578 18.8595L10.7262 21.0445C11.1502 20.3944 11.4804 19.687 11.7231 18.932L7.91495 17.708ZM7.3426 18.9121C7.12198 19.2746 6.87787 19.5847 6.61279 19.8498L9.44122 22.6782C9.94413 22.1753 10.3827 21.6108 10.7594 20.9919L7.3426 18.9121ZM6.61279 19.8498C6.30768 20.1549 5.99131 20.4205 5.66408 20.6495L7.95793 23.9265C8.48402 23.5582 8.97832 23.1411 9.44121 22.6782L6.61279 19.8498ZM5.6246 20.6779C5.29225 20.9228 4.97175 21.1239 4.66351 21.2862L6.52649 24.8258C7.02892 24.5614 7.51908 24.2506 7.9974 23.8981L5.6246 20.6779ZM4.62372 21.3077C3.82203 21.7531 2.97841 22.0816 2.08826 22.2952L3.02175 26.1848C4.26492 25.8864 5.44797 25.4256 6.56629 24.8043L4.62372 21.3077ZM4.555 24.24V20.496H0.555002V24.24H4.555ZM3.20129 22.3887C4.35335 21.9953 5.36772 21.3731 6.2018 20.5092L3.3242 17.7308C2.96362 18.1043 2.50599 18.3994 1.90871 18.6033L3.20129 22.3887ZM6.20098 20.51C6.96426 19.7204 7.58304 18.8371 8.0435 17.862L4.4265 16.154C4.16163 16.7149 3.79907 17.2396 3.32503 17.73L6.20098 20.51ZM8.03347 17.8829C8.48481 16.9552 8.82419 15.9876 9.05022 14.983L5.14778 14.105C4.98981 14.8071 4.75319 15.4822 4.43653 16.1331L8.03347 17.8829ZM9.05249 14.9728C9.25806 14.0363 9.40941 13.1326 9.50342 12.263L5.52659 11.833C5.44993 12.5421 5.32394 13.3024 5.14551 14.1152L9.05249 14.9728ZM9.50342 12.263C9.59625 11.4042 9.63518 10.6026 9.60981 9.86707L5.61219 10.0049C5.62949 10.5067 5.60442 11.1131 5.52659 11.833L9.50342 12.263ZM9.611 9.936C9.611 9.28605 9.6005 8.75181 9.57457 8.36296L5.58343 8.62904C5.60018 8.88019 5.611 9.30595 5.611 9.936H9.611ZM7.579 6.496H2.235V10.496H7.579V6.496ZM4.235 8.496V5.072H0.235002V8.496H4.235ZM2.235 7.072H17.435V3.072H2.235V7.072ZM15.435 5.072V8.496H19.435V5.072H15.435ZM17.435 6.496H12.091V10.496H17.435V6.496ZM18.939 4.64H22.363V0.639999H18.939V4.64ZM20.363 2.64V29.584H24.363V2.64H20.363ZM22.363 27.584H18.939V31.584H22.363V27.584ZM20.939 29.584V16.272H16.939V29.584H20.939ZM18.939 14.272H15.323V18.272H18.939V14.272ZM17.323 16.272V11.728H13.323V16.272H17.323ZM15.323 13.728H18.939V9.728H15.323V13.728ZM20.939 11.728V2.64H16.939V11.728H20.939ZM26.091 2.64V29.584H30.091V2.64H26.091ZM28.091 27.584H24.251V31.584H28.091V27.584ZM26.251 29.584V2.64H22.251V29.584H26.251ZM24.251 4.64H28.091V0.639999H24.251V4.64ZM45.4723 14.384H43.4723V16.384H45.4723V14.384ZM55.7763 14.384H57.7763V12.384H55.7763V14.384ZM55.7763 17.936V19.936H57.7763V17.936H55.7763ZM30.6563 17.936H28.6563V19.936H30.6563V17.936ZM30.6563 14.384V12.384H28.6563V14.384H30.6563ZM41.3123 14.384V16.384H43.3123V14.384H41.3123ZM41.3123 12.208H43.3123V10.208H41.3123V12.208ZM34.0163 12.208H32.0163V14.208H34.0163V12.208ZM34.0163 2.704V0.703999H32.0163V2.704H34.0163ZM52.2883 2.704H54.2883V0.703999H52.2883V2.704ZM52.2883 12.208V14.208H54.2883V12.208H52.2883ZM45.4723 12.208V10.208H43.4723V12.208H45.4723ZM33.5683 20.24V18.24H31.5683V20.24H33.5683ZM52.9603 20.24H54.9603V18.24H52.9603V20.24ZM52.9603 23.28L54.9595 23.334L54.9603 23.307V23.28H52.9603ZM52.7043 25.52L50.7478 25.105L50.7417 25.1335L50.7365 25.1622L52.7043 25.52ZM52.2563 27.376L50.3514 26.7664L50.3487 26.7748L50.3461 26.7832L52.2563 27.376ZM51.6163 29.104V31.104H52.9213L53.4469 29.9095L51.6163 29.104ZM47.6803 29.104L45.9023 28.1881L44.4002 31.104H47.6803V29.104ZM48.5123 27.088L46.6021 26.4952L46.5993 26.5042L46.5966 26.5133L48.5123 27.088ZM48.9283 25.456L50.896 25.8138L50.9009 25.787L50.905 25.7601L48.9283 25.456ZM49.0563 23.92H51.0563V21.92H49.0563V23.92ZM33.5683 23.92H31.5683V25.92H33.5683V23.92ZM48.7683 8.912V10.912H50.7683V8.912H48.7683ZM48.7683 6.032H50.7683V4.032H48.7683V6.032ZM37.6003 6.032V4.032H35.6003V6.032H37.6003ZM37.6003 8.912H35.6003V10.912H37.6003V8.912ZM45.4723 16.384H55.7763V12.384H45.4723V16.384ZM53.7763 14.384V17.936H57.7763V14.384H53.7763ZM55.7763 15.936H30.6563V19.936H55.7763V15.936ZM32.6563 17.936V14.384H28.6563V17.936H32.6563ZM30.6563 16.384H41.3123V12.384H30.6563V16.384ZM43.3123 14.384V12.208H39.3123V14.384H43.3123ZM41.3123 10.208H34.0163V14.208H41.3123V10.208ZM36.0163 12.208V2.704H32.0163V12.208H36.0163ZM34.0163 4.704H52.2883V0.703999H34.0163V4.704ZM50.2883 2.704V12.208H54.2883V2.704H50.2883ZM52.2883 10.208H45.4723V14.208H52.2883V10.208ZM43.4723 12.208V14.384H47.4723V12.208H43.4723ZM33.5683 22.24H52.9603V18.24H33.5683V22.24ZM50.9603 20.24V23.28H54.9603V20.24H50.9603ZM50.961 23.226C50.9426 23.9055 50.8696 24.5306 50.7478 25.105L54.6607 25.935C54.8375 25.1014 54.9352 24.2332 54.9595 23.334L50.961 23.226ZM50.7365 25.1622C50.62 25.8031 50.4896 26.3345 50.3514 26.7664L54.1611 27.9856C54.3642 27.3508 54.5325 26.6449 54.672 25.8778L50.7365 25.1622ZM50.3461 26.7832C50.1741 27.3374 49.9866 27.8417 49.7856 28.2985L53.4469 29.9095C53.7152 29.2997 53.9544 28.6519 54.1664 27.9688L50.3461 26.7832ZM51.6163 27.104H47.6803V31.104H51.6163V27.104ZM49.4582 30.0199C49.8671 29.2261 50.1948 28.4397 50.4279 27.6627L46.5966 26.5133C46.4457 27.0163 46.2187 27.5739 45.9023 28.1881L49.4582 30.0199ZM50.4224 27.6808C50.6305 27.0103 50.7922 26.3849 50.896 25.8138L46.9605 25.0982C46.8937 25.4658 46.778 25.9284 46.6021 26.4952L50.4224 27.6808ZM50.905 25.7601C51.0029 25.1236 51.0563 24.5086 51.0563 23.92H47.0563C47.0563 24.2701 47.0243 24.679 46.9515 25.1519L50.905 25.7601ZM49.0563 21.92H33.5683V25.92H49.0563V21.92ZM35.5683 23.92V20.24H31.5683V23.92H35.5683ZM50.7683 8.912V6.032H46.7683V8.912H50.7683ZM48.7683 4.032H37.6003V8.032H48.7683V4.032ZM35.6003 6.032V8.912H39.6003V6.032H35.6003ZM37.6003 10.912H48.7683V6.912H37.6003V10.912ZM68.5355 4.112L67.7022 5.93013L67.747 5.95066L67.7927 5.96895L68.5355 4.112ZM69.9115 5.04L68.4596 6.41549L68.4782 6.43511L68.4973 6.45421L69.9115 5.04ZM70.8395 6.448L68.9825 7.19078L68.9952 7.22235L69.0089 7.25348L70.8395 6.448ZM70.8395 14.32L69.0089 13.5145L68.9952 13.5456L68.9825 13.5772L70.8395 14.32ZM69.9115 15.728L68.4973 14.3138L68.4782 14.3329L68.4596 14.3525L69.9115 15.728ZM68.5355 16.688L69.3047 18.5342L69.3229 18.5266L69.341 18.5186L68.5355 16.688ZM61.0795 16.688L60.274 18.5186L60.3174 18.5377L60.3615 18.5547L61.0795 16.688ZM59.6715 15.728L58.2573 17.1422L59.6715 15.728ZM58.6795 14.32L56.8489 15.1255L56.8622 15.1557L56.8765 15.1855L58.6795 14.32ZM58.6795 6.448L56.8765 5.58254L56.8622 5.6123L56.8489 5.64252L58.6795 6.448ZM59.6715 5.04L58.2573 3.62579L59.6715 5.04ZM61.0795 4.112L61.8223 5.96895L61.8406 5.96162L61.8588 5.95393L61.0795 4.112ZM66.9035 7.728L65.4893 9.14221L65.5107 9.16364L65.5328 9.1844L66.9035 7.728ZM62.7115 7.728L64.0402 9.22282L64.0451 9.21848L62.7115 7.728ZM62.7115 13.072L61.3383 14.526L61.3578 14.5445L61.3779 14.5625L62.7115 13.072ZM75.5755 2.64V0.639999H73.5755V2.64H75.5755ZM79.3515 2.64H81.3515V0.639999H79.3515V2.64ZM79.3515 17.712V19.712H81.3515V17.712H79.3515ZM75.5755 17.712H73.5755V19.712H75.5755V17.712ZM79.4475 29.584V31.584H81.4475V29.584H79.4475ZM61.6555 29.584H59.6555V31.584H61.6555V29.584ZM61.6555 19.376V17.376H59.6555V19.376H61.6555ZM65.7195 19.376H67.7195V17.376H65.7195V19.376ZM65.7195 22H63.7195V24H65.7195V22ZM75.6075 22V24H77.6075V22H75.6075ZM75.6075 19.376V17.376H73.6075V19.376H75.6075ZM79.4475 19.376H81.4475V17.376H79.4475V19.376ZM65.7195 26.768H63.7195V28.768H65.7195V26.768ZM75.6075 26.768V28.768H77.6075V26.768H75.6075ZM75.6075 24.528H77.6075V22.528H75.6075V24.528ZM65.7195 24.528V22.528H63.7195V24.528H65.7195ZM66.9035 5.76C67.1986 5.76 67.4577 5.81807 67.7022 5.93013L69.3688 2.29387C68.5893 1.9366 67.7604 1.76 66.9035 1.76V5.76ZM67.7927 5.96895C68.0656 6.07811 68.2802 6.22613 68.4596 6.41549L71.3634 3.66451C70.7748 3.0432 70.0721 2.57256 69.2783 2.25505L67.7927 5.96895ZM68.4973 6.45421C68.7107 6.66761 68.8696 6.90839 68.9825 7.19078L72.6965 5.70522C72.3827 4.92094 71.923 4.22305 71.3257 3.62579L68.4973 6.45421ZM69.0089 7.25348C69.125 7.51749 69.1915 7.81724 69.1915 8.176H73.1915C73.1915 7.29742 73.0233 6.44518 72.6701 5.64252L69.0089 7.25348ZM69.1915 8.176V12.592H73.1915V8.176H69.1915ZM69.1915 12.592C69.1915 12.9508 69.125 13.2505 69.0089 13.5145L72.6701 15.1255C73.0233 14.3228 73.1915 13.4706 73.1915 12.592H69.1915ZM68.9825 13.5772C68.8696 13.8596 68.7107 14.1004 68.4973 14.3138L71.3257 17.1422C71.923 16.5449 72.3827 15.8471 72.6965 15.0628L68.9825 13.5772ZM68.4596 14.3525C68.2666 14.5562 68.0306 14.7251 67.73 14.8574L69.341 18.5186C70.1071 18.1815 70.7884 17.7104 71.3634 17.1035L68.4596 14.3525ZM67.7663 14.8418C67.5074 14.9497 67.2258 15.008 66.9035 15.008V19.008C67.7332 19.008 68.5396 18.853 69.3047 18.5342L67.7663 14.8418ZM66.9035 15.008H62.7755V19.008H66.9035V15.008ZM62.7755 15.008C62.4528 15.008 62.1304 14.9494 61.7975 14.8213L60.3615 18.5547C61.1379 18.8533 61.9462 19.008 62.7755 19.008V15.008ZM61.885 14.8574C61.5748 14.7209 61.3128 14.5408 61.0857 14.3138L58.2573 17.1422C58.8409 17.7258 59.5175 18.1858 60.274 18.5186L61.885 14.8574ZM61.0857 14.3138C60.8451 14.0732 60.644 13.7909 60.4825 13.4545L56.8765 15.1855C57.227 15.9157 57.6872 16.5721 58.2573 17.1422L61.0857 14.3138ZM60.5101 13.5145C60.394 13.2505 60.3275 12.9508 60.3275 12.592H56.3275C56.3275 13.4706 56.4957 14.3228 56.8489 15.1255L60.5101 13.5145ZM60.3275 12.592V8.176H56.3275V12.592H60.3275ZM60.3275 8.176C60.3275 7.81724 60.394 7.51749 60.5101 7.25348L56.8489 5.64252C56.4957 6.44518 56.3275 7.29742 56.3275 8.176H60.3275ZM60.4825 7.31346C60.644 6.97707 60.8451 6.69479 61.0857 6.45421L58.2573 3.62579C57.6872 4.19588 57.227 4.85226 56.8765 5.58254L60.4825 7.31346ZM61.0857 6.45421C61.2991 6.24081 61.5399 6.08191 61.8223 5.96895L60.3367 2.25505C59.5524 2.56876 58.8546 3.02852 58.2573 3.62579L61.0857 6.45421ZM61.8588 5.95393C62.1783 5.81873 62.4794 5.76 62.7755 5.76V1.76C61.9196 1.76 61.09 1.93593 60.3002 2.27007L61.8588 5.95393ZM62.7755 5.76H66.9035V1.76H62.7755V5.76ZM69.4475 11.696V9.072H65.4475V11.696H69.4475ZM69.4475 9.072C69.4475 8.0352 69.0863 7.03591 68.2742 6.2716L65.5328 9.1844C65.5243 9.17644 65.5102 9.16136 65.4947 9.13895C65.4792 9.11637 65.4666 9.09261 65.4576 9.07039C65.4386 9.02343 65.4475 9.01425 65.4475 9.072H69.4475ZM68.3177 6.31378C67.5636 5.55969 66.5997 5.184 65.5595 5.184V9.184C65.5792 9.184 65.5852 9.18565 65.5801 9.18471C65.5746 9.18369 65.562 9.18071 65.5451 9.17389C65.5282 9.16703 65.513 9.15871 65.5011 9.15073C65.4894 9.14292 65.4857 9.13862 65.4893 9.14221L68.3177 6.31378ZM65.5595 5.184H64.1195V9.184H65.5595V5.184ZM64.1195 5.184C63.0835 5.184 62.142 5.5539 61.3779 6.23751L64.0451 9.21848C64.065 9.2007 64.078 9.19189 64.0838 9.18832C64.0893 9.1849 64.0905 9.18474 64.0883 9.1856C64.086 9.18647 64.0851 9.18649 64.0874 9.18607C64.09 9.18562 64.1 9.184 64.1195 9.184V5.184ZM61.3828 6.23318C60.535 6.98678 60.1355 7.99725 60.1355 9.072H64.1355C64.1355 9.0283 64.1422 9.05081 64.1178 9.10784C64.1064 9.1345 64.0916 9.16033 64.0751 9.18294C64.0588 9.20526 64.0454 9.21825 64.0402 9.22282L61.3828 6.23318ZM60.1355 9.072V11.696H64.1355V9.072H60.1355ZM60.1355 11.696C60.1355 12.7699 60.5322 13.7648 61.3383 14.526L64.0847 11.618C64.0817 11.6151 64.0875 11.6201 64.097 11.6336C64.1067 11.6475 64.1165 11.6648 64.1244 11.6837C64.1322 11.7025 64.1355 11.7163 64.1365 11.7217C64.1375 11.7266 64.1355 11.7191 64.1355 11.696H60.1355ZM61.3779 14.5625C62.1419 15.2461 63.0835 15.616 64.1195 15.616V11.616C64.1 11.616 64.09 11.6144 64.0874 11.6139C64.0851 11.6135 64.086 11.6135 64.0883 11.6144C64.0905 11.6153 64.0893 11.6151 64.0838 11.6117C64.078 11.6081 64.065 11.5993 64.0451 11.5815L61.3779 14.5625ZM64.1195 15.616H65.5595V11.616H64.1195V15.616ZM65.5595 15.616C66.5997 15.616 67.5636 15.2403 68.3177 14.4862L65.4893 11.6578C65.4857 11.6614 65.4894 11.6571 65.5011 11.6493C65.513 11.6413 65.5282 11.633 65.5451 11.6261C65.562 11.6193 65.5746 11.6163 65.5801 11.6153C65.5852 11.6144 65.5792 11.616 65.5595 11.616V15.616ZM68.3177 14.4862C69.0879 13.716 69.4475 12.7334 69.4475 11.696H65.4475C65.4475 11.7256 65.4451 11.7399 65.4448 11.7417C65.4445 11.7431 65.4459 11.735 65.4516 11.7207C65.4573 11.7061 65.4651 11.6911 65.4741 11.6776C65.4829 11.6643 65.4893 11.6578 65.4893 11.6578L68.3177 14.4862ZM75.5755 4.64H79.3515V0.639999H75.5755V4.64ZM77.3515 2.64V17.712H81.3515V2.64H77.3515ZM79.3515 15.712H75.5755V19.712H79.3515V15.712ZM77.5755 17.712V2.64H73.5755V17.712H77.5755ZM79.4475 27.584H61.6555V31.584H79.4475V27.584ZM63.6555 29.584V19.376H59.6555V29.584H63.6555ZM61.6555 21.376H65.7195V17.376H61.6555V21.376ZM63.7195 19.376V22H67.7195V19.376H63.7195ZM65.7195 24H75.6075V20H65.7195V24ZM77.6075 22V19.376H73.6075V22H77.6075ZM75.6075 21.376H79.4475V17.376H75.6075V21.376ZM77.4475 19.376V29.584H81.4475V19.376H77.4475ZM65.7195 28.768H75.6075V24.768H65.7195V28.768ZM77.6075 26.768V24.528H73.6075V26.768H77.6075ZM75.6075 22.528H65.7195V26.528H75.6075V22.528ZM63.7195 24.528V26.768H67.7195V24.528H63.7195ZM81.9987 23.312H79.9987V25.312H81.9987V23.312ZM81.9987 5.648V3.648H79.9987V5.648H81.9987ZM86.0947 5.648H88.0947V3.648H86.0947V5.648ZM86.0947 19.12H84.0947V21.12H86.0947V19.12ZM95.6948 19.12H97.6948V17.12H95.6948V19.12ZM95.6948 23.312V25.312H97.6948V23.312H95.6948ZM102.031 29.584V31.584H104.031V29.584H102.031ZM97.8068 29.584H95.8068V31.584H97.8068V29.584ZM97.8068 2.672V0.671999H95.8068V2.672H97.8068ZM102.031 2.672H104.031V0.671999H102.031V2.672ZM83.9987 23.312V5.648H79.9987V23.312H83.9987ZM81.9987 7.648H86.0947V3.648H81.9987V7.648ZM84.0947 5.648V19.12H88.0947V5.648H84.0947ZM86.0947 21.12H95.6948V17.12H86.0947V21.12ZM93.6948 19.12V23.312H97.6948V19.12H93.6948ZM95.6948 21.312H81.9987V25.312H95.6948V21.312ZM102.031 27.584H97.8068V31.584H102.031V27.584ZM99.8068 29.584V2.672H95.8068V29.584H99.8068ZM97.8068 4.672H102.031V0.671999H97.8068V4.672ZM100.031 2.672V29.584H104.031V2.672H100.031ZM108.704 9.296V7.296H106.704V9.296H108.704ZM108.704 19.824H106.704V21.824H108.704V19.824ZM118.72 19.824H120.72V17.824H118.72V19.824ZM118.72 23.92V25.92H120.72V23.92H118.72ZM104.576 23.92H102.576V25.92H104.576V23.92ZM104.576 5.552V3.552H102.576V5.552H104.576ZM118.08 5.552H120.08V3.552H118.08V5.552ZM118.08 9.296V11.296H120.08V9.296H118.08ZM128.256 11.664H130.256V9.664H128.256V11.664ZM128.256 15.76V17.76H130.256V15.76H128.256ZM124.576 15.76V13.76H122.576V15.76H124.576ZM124.576 29.584V31.584H126.576V29.584H124.576ZM120.48 29.584H118.48V31.584H120.48V29.584ZM120.48 2.992V0.991999H118.48V2.992H120.48ZM124.576 2.992H126.576V0.991999H124.576V2.992ZM124.576 11.664H122.576V13.664H124.576V11.664ZM106.704 9.296V19.824H110.704V9.296H106.704ZM108.704 21.824H118.72V17.824H108.704V21.824ZM116.72 19.824V23.92H120.72V19.824H116.72ZM118.72 21.92H104.576V25.92H118.72V21.92ZM106.576 23.92V5.552H102.576V23.92H106.576ZM104.576 7.552H118.08V3.552H104.576V7.552ZM116.08 5.552V9.296H120.08V5.552H116.08ZM118.08 7.296H108.704V11.296H118.08V7.296ZM126.256 11.664V15.76H130.256V11.664H126.256ZM128.256 13.76H124.576V17.76H128.256V13.76ZM122.576 15.76V29.584H126.576V15.76H122.576ZM124.576 27.584H120.48V31.584H124.576V27.584ZM122.48 29.584V2.992H118.48V29.584H122.48ZM120.48 4.992H124.576V0.991999H120.48V4.992ZM122.576 2.992V11.664H126.576V2.992H122.576ZM124.576 13.664H128.256V9.664H124.576V13.664ZM135.034 24.08H137.034V22.08H135.034V24.08ZM135.034 27.6V29.6H137.034V27.6H135.034ZM131.514 27.6H129.514V29.6H131.514V27.6ZM131.514 24.08V22.08H129.514V24.08H131.514ZM133.034 24.08V27.6H137.034V24.08H133.034ZM135.034 25.6H131.514V29.6H135.034V25.6ZM133.514 27.6V24.08H129.514V27.6H133.514ZM131.514 26.08H135.034V22.08H131.514V26.08Z" fill="#643CFF" mask="url(#path-1-outside-1_568_237)"/>
</svg>
