<svg width="43" height="47" viewBox="0 0 43 47" fill="none" xmlns="http://www.w3.org/2000/svg">
<path d="M18.1783 9.57992C19.175 6.66325 23.205 6.57492 24.3867 9.31492L24.4867 9.58159L25.8317 13.5149C26.1399 14.417 26.638 15.2424 27.2924 15.9356C27.9468 16.6288 28.7422 17.1736 29.625 17.5333L29.9867 17.6683L33.92 19.0116C36.8367 20.0083 36.925 24.0383 34.1867 25.2199L33.92 25.3199L29.9867 26.6649C29.0843 26.973 28.2585 27.471 27.565 28.1254C26.8715 28.7797 26.3265 29.5753 25.9667 30.4583L25.8317 30.8183L24.4883 34.7533C23.4917 37.6699 19.4617 37.7583 18.2817 35.0199L18.1783 34.7533L16.835 30.8199C16.527 29.9176 16.0289 29.0918 15.3746 28.3983C14.7202 27.7048 13.9246 27.1597 13.0417 26.7999L12.6817 26.6649L8.74832 25.3216C5.82999 24.3249 5.74166 20.2949 8.48166 19.1149L8.74832 19.0116L12.6817 17.6683C13.5837 17.36 14.4092 16.8619 15.1024 16.2075C15.7956 15.5532 16.3403 14.7577 16.7 13.8749L16.835 13.5149L18.1783 9.57992ZM34.6667 3.83325C34.9785 3.83325 35.284 3.92072 35.5486 4.0857C35.8132 4.25069 36.0261 4.48659 36.1633 4.76659L36.2433 4.96159L36.8267 6.67159L38.5383 7.25492C38.8508 7.36108 39.1247 7.55761 39.3254 7.81961C39.526 8.08161 39.6444 8.39728 39.6655 8.72662C39.6865 9.05596 39.6093 9.38414 39.4437 9.66956C39.278 9.95499 39.0314 10.1848 38.735 10.3299L38.5383 10.4099L36.8283 10.9933L36.245 12.7049C36.1386 13.0173 35.942 13.2911 35.6799 13.4916C35.4178 13.6921 35.1021 13.8102 34.7727 13.8311C34.4434 13.852 34.1153 13.7747 33.83 13.6089C33.5446 13.4431 33.3149 13.1964 33.17 12.8999L33.09 12.7049L32.5067 10.9949L30.795 10.4116C30.4825 10.3054 30.2086 10.1089 30.0079 9.84689C29.8073 9.58489 29.6889 9.26922 29.6679 8.93988C29.6468 8.61055 29.724 8.28237 29.8896 7.99694C30.0553 7.71151 30.3019 7.48169 30.5983 7.33659L30.795 7.25659L32.505 6.67325L33.0883 4.96159C33.2007 4.63229 33.4133 4.34643 33.6964 4.14408C33.9794 3.94173 34.3187 3.83304 34.6667 3.83325Z" fill="#DFD7FE"/>
<path d="M14.7989 16.353C15.7706 13.5093 19.6999 13.4231 20.852 16.0946L20.9495 16.3546L22.2609 20.1896C22.5614 21.0691 23.047 21.874 23.6851 22.5498C24.3231 23.2257 25.0986 23.7568 25.9594 24.1075L26.312 24.2391L30.147 25.5489C32.9907 26.5206 33.0769 30.4499 30.407 31.602L30.147 31.6995L26.312 33.0109C25.4322 33.3112 24.627 33.7968 23.9509 34.4348C23.2747 35.0728 22.7433 35.8485 22.3925 36.7094L22.2609 37.0604L20.9511 40.897C19.9794 43.7407 16.0501 43.8269 14.8996 41.157L14.7989 40.897L13.4891 37.062C13.1888 36.1822 12.7032 35.3771 12.0652 34.7009C11.4272 34.0248 10.6515 33.4933 9.79061 33.1425L9.43961 33.0109L5.60461 31.7011C2.75924 30.7294 2.67311 26.8001 5.34461 25.6496L5.60461 25.5489L9.43961 24.2391C10.3191 23.9386 11.1239 23.4529 11.7998 22.8149C12.4757 22.1769 13.0068 21.4014 13.3575 20.5406L13.4891 20.1896L14.7989 16.353ZM17.875 17.4028L16.5652 21.2378C16.1076 22.5789 15.3632 23.8041 14.3837 24.8282C13.4043 25.8522 12.2134 26.6505 10.894 27.1674L10.4877 27.3153L6.65274 28.625L10.4877 29.9347C11.8289 30.3924 13.0541 31.1368 14.0782 32.1163C15.1022 33.0957 15.9005 34.2866 16.4174 35.606L16.5652 36.0122L17.875 39.8472L19.1847 36.0122C19.6424 34.6711 20.3868 33.4459 21.3662 32.4218C22.3457 31.3978 23.5366 30.5995 24.856 30.0826L25.2622 29.9364L29.0972 28.625L25.2622 27.3153C23.9211 26.8576 22.6959 26.1132 21.6718 25.1337C20.6477 24.1543 19.8495 22.9634 19.3326 21.644L19.1864 21.2378L17.875 17.4028ZM30.875 10.75C31.179 10.75 31.4769 10.8353 31.7349 10.9961C31.9928 11.157 32.2005 11.387 32.3342 11.66L32.4122 11.8501L32.981 13.5174L34.6499 14.0861C34.9545 14.1896 35.2216 14.3813 35.4172 14.6367C35.6129 14.8921 35.7283 15.1999 35.7488 15.521C35.7694 15.8421 35.6941 16.1621 35.5326 16.4404C35.3711 16.7187 35.1306 16.9428 34.8416 17.0842L34.6499 17.1623L32.9826 17.731L32.4139 19.3999C32.3102 19.7044 32.1184 19.9714 31.8629 20.1669C31.6073 20.3623 31.2995 20.4776 30.9784 20.4979C30.6573 20.5183 30.3374 20.4429 30.0592 20.2812C29.781 20.1196 29.5571 19.879 29.4157 19.59L29.3377 19.3999L28.769 17.7326L27.1001 17.1639C26.7955 17.0604 26.5284 16.8688 26.3327 16.6133C26.1371 16.3579 26.0217 16.0501 26.0012 15.729C25.9806 15.4079 26.0559 15.0879 26.2174 14.8096C26.3789 14.5313 26.6194 14.3072 26.9084 14.1658L27.1001 14.0878L28.7674 13.519L29.3361 11.8501C29.4457 11.5291 29.653 11.2504 29.929 11.0531C30.2049 10.8558 30.5357 10.7498 30.875 10.75Z" fill="#5228F4"/>
</svg>
