<svg width="45" height="43" viewBox="0 0 45 43" fill="none" xmlns="http://www.w3.org/2000/svg">
<path fill-rule="evenodd" clip-rule="evenodd" d="M15.75 7C13.9551 7 12.5 8.45507 12.5 10.25C12.5 12.0449 13.9551 13.5 15.75 13.5C17.5449 13.5 19 12.0449 19 10.25C19 8.45507 17.5449 7 15.75 7ZM9.25 10.25C9.25 6.66015 12.1601 3.75 15.75 3.75C19.3399 3.75 22.25 6.66015 22.25 10.25C22.25 13.8399 19.3399 16.75 15.75 16.75C12.1601 16.75 9.25 13.8399 9.25 10.25Z" fill="#DFD7FE"/>
<path fill-rule="evenodd" clip-rule="evenodd" d="M39.649 5.85095C40.2836 6.48555 40.2836 7.51445 39.649 8.14905L20.344 27.454C19.7094 28.0886 18.6805 28.0886 18.0459 27.454C17.4113 26.8194 17.4113 25.7906 18.0459 25.156L23.2018 20L18.0459 14.844C17.4113 14.2094 17.4113 13.1806 18.0459 12.546C18.6805 11.9113 19.7094 11.9113 20.344 12.546L25.4999 17.7019L37.3509 5.85095C37.9855 5.21635 39.0144 5.21635 39.649 5.85095Z" fill="#DFD7FE"/>
<path fill-rule="evenodd" clip-rule="evenodd" d="M15.75 26.5C13.9551 26.5 12.5 27.9551 12.5 29.75C12.5 31.5449 13.9551 33 15.75 33C17.5449 33 19 31.5449 19 29.75C19 27.9551 17.5449 26.5 15.75 26.5ZM9.25 29.75C9.25 26.1601 12.1601 23.25 15.75 23.25C19.3399 23.25 22.25 26.1601 22.25 29.75C22.25 33.3399 19.3399 36.25 15.75 36.25C12.1601 36.25 9.25 33.3399 9.25 29.75Z" fill="#DFD7FE"/>
<path fill-rule="evenodd" clip-rule="evenodd" d="M28.901 23.401C29.5356 22.7664 30.5645 22.7664 31.1991 23.401L39.6491 31.851C40.2837 32.4856 40.2837 33.5145 39.6491 34.1491C39.0145 34.7837 37.9856 34.7837 37.351 34.1491L28.901 25.6991C28.2664 25.0645 28.2664 24.0356 28.901 23.401Z" fill="#DFD7FE"/>
<path fill-rule="evenodd" clip-rule="evenodd" d="M9.75 10C7.95507 10 6.5 11.4551 6.5 13.25C6.5 15.0449 7.95507 16.5 9.75 16.5C11.5449 16.5 13 15.0449 13 13.25C13 11.4551 11.5449 10 9.75 10ZM3.25 13.25C3.25 9.66015 6.16015 6.75 9.75 6.75C13.3399 6.75 16.25 9.66015 16.25 13.25C16.25 16.8399 13.3399 19.75 9.75 19.75C6.16015 19.75 3.25 16.8399 3.25 13.25Z" fill="#5228F4"/>
<path fill-rule="evenodd" clip-rule="evenodd" d="M33.649 8.85095C34.2836 9.48555 34.2836 10.5144 33.649 11.149L14.344 30.454C13.7094 31.0886 12.6805 31.0886 12.0459 30.454C11.4113 29.8194 11.4113 28.7906 12.0459 28.156L17.2018 23L12.0459 17.844C11.4113 17.2094 11.4113 16.1806 12.0459 15.546C12.6805 14.9113 13.7094 14.9113 14.344 15.546L19.4999 20.7019L31.3509 8.85095C31.9855 8.21635 33.0144 8.21635 33.649 8.85095Z" fill="#5228F4"/>
<path fill-rule="evenodd" clip-rule="evenodd" d="M9.75 29.5C7.95507 29.5 6.5 30.9551 6.5 32.75C6.5 34.5449 7.95507 36 9.75 36C11.5449 36 13 34.5449 13 32.75C13 30.9551 11.5449 29.5 9.75 29.5ZM3.25 32.75C3.25 29.1601 6.16015 26.25 9.75 26.25C13.3399 26.25 16.25 29.1601 16.25 32.75C16.25 36.3399 13.3399 39.25 9.75 39.25C6.16015 39.25 3.25 36.3399 3.25 32.75Z" fill="#5228F4"/>
<path fill-rule="evenodd" clip-rule="evenodd" d="M22.901 26.401C23.5356 25.7664 24.5645 25.7664 25.1991 26.401L33.6491 34.851C34.2837 35.4856 34.2837 36.5145 33.6491 37.1491C33.0145 37.7837 31.9856 37.7837 31.351 37.1491L22.901 28.6991C22.2664 28.0645 22.2664 27.0356 22.901 26.401Z" fill="#5228F4"/>
</svg>
