<svg width="48" height="48" viewBox="0 0 48 48" fill="none" xmlns="http://www.w3.org/2000/svg">
<rect width="48" height="48" rx="10" fill="#5228F4"/>
<path fill-rule="evenodd" clip-rule="evenodd" d="M24 15C24.5523 15 25 15.4477 25 16V25.5858L28.2929 22.2929C28.6834 21.9024 29.3166 21.9024 29.7071 22.2929C30.0976 22.6834 30.0976 23.3166 29.7071 23.7071L24.7071 28.7071C24.3166 29.0976 23.6834 29.0976 23.2929 28.7071L18.2929 23.7071C17.9024 23.3166 17.9024 22.6834 18.2929 22.2929C18.6834 21.9024 19.3166 21.9024 19.7071 22.2929L23 25.5858V16C23 15.4477 23.4477 15 24 15ZM16 28C16.5523 28 17 28.4477 17 29V31C17 31.2652 17.1054 31.5196 17.2929 31.7071C17.4804 31.8946 17.7348 32 18 32H30C30.2652 32 30.5196 31.8946 30.7071 31.7071C30.8946 31.5196 31 31.2652 31 31V29C31 28.4477 31.4477 28 32 28C32.5523 28 33 28.4477 33 29V31C33 31.7957 32.6839 32.5587 32.1213 33.1213C31.5587 33.6839 30.7957 34 30 34H18C17.2043 34 16.4413 33.6839 15.8787 33.1213C15.3161 32.5587 15 31.7957 15 31V29C15 28.4477 15.4477 28 16 28Z" fill="#FEFEFE"/>
</svg>
