<svg width="48" height="48" viewBox="0 0 48 48" fill="none" xmlns="http://www.w3.org/2000/svg">
<rect x="1" y="1" width="46" height="46" rx="9" fill="#FAF9FE"/>
<rect x="1" y="1" width="46" height="46" rx="9" stroke="#EFEAFF" stroke-width="2"/>
<path fill-rule="evenodd" clip-rule="evenodd" d="M32.3979 15.4785C31.2264 14.3069 29.3269 14.3069 28.1553 15.4785L19.1043 24.5295C18.6357 24.9981 18.6357 25.7579 19.1043 26.2265L21.6499 28.7721C22.1185 29.2407 22.8783 29.2407 23.347 28.7721L32.3979 19.7211C33.5695 18.5496 33.5695 16.6501 32.3979 15.4785ZM29.5695 16.8927C29.96 16.5022 30.5932 16.5022 30.9837 16.8927C31.3742 17.2832 31.3742 17.9164 30.9837 18.3069L22.4984 26.7922L21.0842 25.378L29.5695 16.8927ZM18.4846 27.021C17.8538 26.3903 16.7798 26.6438 16.4977 27.4901L15.3123 31.0463C14.9996 31.9844 15.8921 32.8768 16.8302 32.5641L20.3863 31.3788C21.2326 31.0967 21.4862 30.0226 20.8554 29.3918L18.4846 27.021ZM17.7156 30.1608L17.9857 29.3505L18.5259 29.8907L17.7156 30.1608Z" fill="#5228F4"/>
<rect x="23" y="31" width="11" height="2" rx="1" fill="#5228F4"/>
</svg>
