<svg width="25" height="25" viewBox="0 0 25 25" fill="none" xmlns="http://www.w3.org/2000/svg">
<path fill-rule="evenodd" clip-rule="evenodd" d="M12.5015 2.23222C6.82989 2.23222 2.23221 6.82987 2.23221 12.5013C2.23221 18.1728 6.82989 22.7704 12.5015 22.7704C17.3559 22.7704 21.4262 19.401 22.4959 14.8721C22.6377 14.2722 23.2387 13.9008 23.8388 14.0425C24.4386 14.1842 24.81 14.7854 24.6684 15.3853C23.3659 20.8988 18.4143 25.0027 12.5015 25.0027C5.59711 25.0027 0 19.4057 0 12.5013C0 5.59703 5.59711 0 12.5015 0C16.3354 0 19.7649 1.72568 22.0575 4.44092L23.0977 3.4007C23.4168 3.0815 23.897 2.98601 24.314 3.15877C24.7309 3.33151 25.0029 3.73848 25.0029 4.18991V8.12239C25.0029 8.73881 24.5033 9.2385 23.8868 9.2385H23.0402C23.032 9.2387 23.0237 9.23879 23.0155 9.2388C23.0068 9.2388 22.9978 9.23872 22.9891 9.2385H19.9544C19.5029 9.2385 19.0959 8.96658 18.9231 8.54951C18.7504 8.13245 18.8459 7.6524 19.165 7.33319L20.4724 6.0259C18.5888 3.71027 15.717 2.23222 12.5015 2.23222ZM14.0643 6.25151C14.0643 5.38854 13.3647 4.68896 12.5017 4.68896C11.6387 4.68896 10.9392 5.38854 10.9392 6.25151V12.5017C10.9392 13.3647 11.6387 14.0643 12.5017 14.0643H16.9662C17.8291 14.0643 18.5288 13.3647 18.5288 12.5017C18.5288 11.6387 17.8291 10.9392 16.9662 10.9392H14.0643V6.25151Z" fill="#5228F4"/>
</svg>
