<svg width="100" height="48" viewBox="0 0 100 48" fill="none" xmlns="http://www.w3.org/2000/svg">
<rect width="100" height="48" rx="10" fill="#292929"/>
<path d="M46.8802 15.46L56.5402 21V21.08C57.0593 21.3804 57.4902 21.8121 57.7898 22.3316C58.0894 22.8511 58.2471 23.4403 58.2471 24.04C58.2471 24.6397 58.0894 25.2289 57.7898 25.7485C57.4902 26.268 57.0593 26.6996 56.5402 27L46.8802 32.54C46.3603 32.8404 45.7707 32.999 45.1702 33C44.2632 33 43.3933 32.6397 42.7519 31.9983C42.1105 31.357 41.7502 30.4871 41.7502 29.58V18.46C41.7435 17.8565 41.8966 17.2619 42.194 16.7366C42.4914 16.2114 42.9225 15.7742 43.4435 15.4695C43.9646 15.1648 44.557 15.0034 45.1606 15.0017C45.7642 15.0001 46.3575 15.1582 46.8802 15.46Z" fill="#FEFEFE"/>
</svg>
