<svg width="24" height="24" viewBox="0 0 24 24" fill="none" xmlns="http://www.w3.org/2000/svg">
<path d="M8.88021 3.46003L18.5402 9.00003V9.08003C19.0593 9.38044 19.4902 9.81206 19.7898 10.3316C20.0894 10.8511 20.2471 11.4403 20.2471 12.04C20.2471 12.6397 20.0894 13.2289 19.7898 13.7485C19.4902 14.268 19.0593 14.6996 18.5402 15L8.88021 20.54C8.3603 20.8404 7.77065 20.999 7.17021 21C6.26317 21 5.39328 20.6397 4.75191 19.9983C4.11054 19.357 3.75021 18.4871 3.75021 17.58V6.46003C3.74345 5.85646 3.89655 5.26185 4.19396 4.7366C4.49137 4.21135 4.92249 3.77417 5.44354 3.46947C5.96459 3.16476 6.557 3.00338 7.16061 3.00172C7.76421 3.00006 8.3575 3.15819 8.88021 3.46003Z" fill="#FEFEFE"/>
</svg>
