<svg width="53" height="53" viewBox="0 0 53 53" fill="none" xmlns="http://www.w3.org/2000/svg">
<path d="M25.1592 2.6984C25.8139 1.7672 27.1861 1.7672 27.8408 2.6984L36.1919 14.5768C36.4004 14.8733 36.6999 15.0925 37.0444 15.2005L50.8447 19.527C51.9266 19.8661 52.3506 21.1803 51.6734 22.095L43.0343 33.7628C42.8187 34.054 42.7043 34.4086 42.7087 34.7718L42.8867 49.3242C42.9006 50.465 41.7904 51.2772 40.7172 50.9113L27.0268 46.2439C26.6851 46.1274 26.3149 46.1274 25.9732 46.2439L12.2828 50.9113C11.2096 51.2772 10.0994 50.465 10.1133 49.3242L10.2913 34.7718C10.2957 34.4086 10.1813 34.054 9.96567 33.7628L1.32662 22.095C0.649368 21.1803 1.07343 19.8661 2.1553 19.527L15.9556 15.2005C16.3001 15.0925 16.5996 14.8733 16.8081 14.5768L25.1592 2.6984Z" fill="#F7C100"/>
<path d="M32.6157 31.36C32.6157 33.216 32.0797 34.664 31.0077 35.704C29.9357 36.728 28.1837 37.24 25.7517 37.24C24.9037 37.24 24.0877 37.16 23.3037 37C22.5357 36.824 21.8557 36.632 21.2637 36.424L21.7677 32.752C22.4557 33.008 23.1597 33.2 23.8797 33.328C24.5997 33.456 25.2637 33.488 25.8717 33.424C26.4797 33.36 26.9677 33.168 27.3357 32.848C27.7197 32.528 27.9117 32.048 27.9117 31.408C27.9117 30.816 27.7277 30.376 27.3597 30.088C26.9917 29.8 26.5117 29.616 25.9197 29.536C25.3437 29.456 24.7117 29.432 24.0237 29.464C23.3517 29.496 22.7117 29.528 22.1037 29.56V19.72H32.3277L31.4877 24.04H26.3757V26.344C26.7437 26.312 27.1197 26.296 27.5037 26.296C29.0237 26.296 30.2557 26.696 31.1997 27.496C32.1437 28.296 32.6157 29.584 32.6157 31.36Z" fill="#FEFEFE"/>
</svg>
