<svg width="53" height="53" viewBox="0 0 53 53" fill="none" xmlns="http://www.w3.org/2000/svg">
<path d="M25.1592 2.6984C25.8139 1.7672 27.1861 1.7672 27.8408 2.6984L36.1919 14.5768C36.4004 14.8733 36.6999 15.0925 37.0444 15.2005L50.8447 19.527C51.9266 19.8661 52.3506 21.1803 51.6734 22.095L43.0343 33.7628C42.8187 34.054 42.7043 34.4086 42.7087 34.7718L42.8867 49.3242C42.9006 50.465 41.7904 51.2772 40.7172 50.9113L27.0268 46.2439C26.6851 46.1274 26.3149 46.1274 25.9732 46.2439L12.2828 50.9113C11.2096 51.2772 10.0994 50.465 10.1133 49.3242L10.2913 34.7718C10.2957 34.4086 10.1813 34.054 9.96567 33.7628L1.32662 22.095C0.649368 21.1803 1.07343 19.8661 2.1553 19.527L15.9556 15.2005C16.3001 15.0925 16.5996 14.8733 16.8081 14.5768L25.1592 2.6984Z" fill="#F7C100"/>
<path d="M24.816 29.624C25.328 28.952 25.776 28.248 26.16 27.512C26.544 26.776 26.736 26.096 26.736 25.472C26.736 24.896 26.512 24.496 26.064 24.272C25.616 24.032 25.072 23.912 24.432 23.912C24 23.912 23.544 23.952 23.064 24.032C22.584 24.112 22.136 24.224 21.72 24.368L21 20.84C21.864 20.568 22.72 20.36 23.568 20.216C24.416 20.072 25.216 20 25.968 20C27.056 20 28.016 20.16 28.848 20.48C29.696 20.8 30.36 21.312 30.84 22.016C31.32 22.704 31.56 23.616 31.56 24.752C31.56 25.728 31.352 26.68 30.936 27.608C30.52 28.52 29.984 29.4 29.328 30.248L26.736 33.632H31.872V37.472H21.144V34.448L24.816 29.624Z" fill="#FEFEFE"/>
</svg>
