<svg width="53" height="53" viewBox="0 0 53 53" fill="none" xmlns="http://www.w3.org/2000/svg">
<path d="M25.1592 2.6984C25.8139 1.7672 27.1861 1.7672 27.8408 2.6984L36.1919 14.5768C36.4004 14.8733 36.6999 15.0925 37.0444 15.2005L50.8447 19.527C51.9266 19.8661 52.3506 21.1803 51.6734 22.095L43.0343 33.7628C42.8187 34.054 42.7043 34.4086 42.7087 34.7718L42.8867 49.3242C42.9006 50.465 41.7904 51.2772 40.7172 50.9113L27.0268 46.2439C26.6851 46.1274 26.3149 46.1274 25.9732 46.2439L12.2828 50.9113C11.2096 51.2772 10.0994 50.465 10.1133 49.3242L10.2913 34.7718C10.2957 34.4086 10.1813 34.054 9.96567 33.7628L1.32662 22.095C0.649368 21.1803 1.07343 19.8661 2.1553 19.527L15.9556 15.2005C16.3001 15.0925 16.5996 14.8733 16.8081 14.5768L25.1592 2.6984Z" fill="#F7C100"/>
<path d="M30.76 20.912V31.16H32.944L32.248 34.8081H30.76V38H26.248V34.8321H19.48V31.352L25.144 20.576L30.76 20.912ZM26.248 31.16V25.64L23.272 31.16H26.248Z" fill="#FEFEFE"/>
</svg>
