<svg width="28" height="49" viewBox="0 0 28 49" fill="none" xmlns="http://www.w3.org/2000/svg">
<path d="M24.1592 0.698401C24.8139 -0.2328 26.1861 -0.2328 26.8408 0.698401L35.1919 12.5768C35.4004 12.8733 35.6999 13.0925 36.0444 13.2005L49.8447 17.527C50.9266 17.8661 51.3506 19.1803 50.6734 20.095L42.0343 31.7628C41.8187 32.054 41.7043 32.4086 41.7087 32.7718L41.8867 47.3242C41.9006 48.465 40.7904 49.2772 39.7172 48.9113L26.0268 44.2439C25.6851 44.1274 25.3149 44.1274 24.9732 44.2439L11.2828 48.9113C10.2096 49.2772 9.09937 48.465 9.11332 47.3242L9.29128 32.7718C9.29572 32.4086 9.1813 32.054 8.96567 31.7628L0.326619 20.095C-0.350632 19.1803 0.0734314 17.8661 1.1553 17.527L14.9556 13.2005C15.3001 13.0925 15.5996 12.8733 15.8081 12.5768L24.1592 0.698401Z" fill="#F7C100"/>
<path d="M25.2561 36.24C24.4881 36.24 23.7041 36.16 22.9041 36C22.1201 35.856 21.3521 35.656 20.6001 35.4L21.0321 31.728C21.5921 31.936 22.1681 32.112 22.7601 32.256C23.3681 32.384 23.9361 32.448 24.4641 32.448C25.1521 32.448 25.7201 32.32 26.1681 32.064C26.6321 31.808 26.8641 31.384 26.8641 30.792C26.8641 30.232 26.6641 29.816 26.2641 29.544C25.8801 29.272 25.2321 29.136 24.3201 29.136H22.5681V25.632H24.3921C25.2881 25.632 25.9201 25.488 26.2881 25.2C26.6721 24.912 26.8641 24.464 26.8641 23.856C26.8641 23.296 26.6321 22.912 26.1681 22.704C25.7201 22.48 25.1681 22.368 24.5121 22.368C24.0641 22.368 23.5921 22.408 23.0961 22.488C22.6161 22.552 22.1521 22.64 21.7041 22.752L21.0321 19.32C21.8321 19.064 22.6321 18.872 23.4321 18.744C24.2481 18.6 25.0321 18.528 25.7841 18.528C26.8561 18.528 27.8241 18.68 28.6881 18.984C29.5521 19.272 30.2401 19.736 30.7521 20.376C31.2801 21 31.5521 21.832 31.5681 22.872C31.5681 23.976 31.3601 24.88 30.9441 25.584C30.5281 26.288 29.8961 26.848 29.0481 27.264V27.312C29.8641 27.616 30.5201 28.088 31.0161 28.728C31.5121 29.368 31.7601 30.24 31.7601 31.344C31.7601 32.464 31.4561 33.392 30.8481 34.128C30.2561 34.848 29.4641 35.384 28.4721 35.736C27.4961 36.072 26.4241 36.24 25.2561 36.24Z" fill="#FEFEFE"/>
</svg>
