<svg width="25" height="28" viewBox="0 0 25 28" fill="none" xmlns="http://www.w3.org/2000/svg">
<path d="M18.9414 2.3501L18.9414 10.4501" stroke="#5228F4" stroke-width="3" stroke-linecap="round"/>
<path d="M23 6.3999L14.8824 6.3999" stroke="#5228F4" stroke-width="3" stroke-linecap="round"/>
<path fill-rule="evenodd" clip-rule="evenodd" d="M13.6471 1C14.8935 1 15.9339 1 16.8107 1.0423C16.5767 1.42278 16.4417 1.8707 16.4417 2.35015V3.90015H14.8829C13.5022 3.90015 12.3829 5.01944 12.3829 6.40015C12.3829 7.78086 13.5022 8.90015 14.8829 8.90015H16.4417V10.4501C16.4417 11.8309 17.561 12.9501 18.9417 12.9501C20.3224 12.9501 21.4417 11.8309 21.4417 10.4501V8.90015H21.6471V9V20C21.6471 23.7712 21.6471 25.6569 20.4755 26.8284C19.3039 28 17.4183 28 13.6471 28H8.00001C4.22877 28 2.34315 28 1.17157 26.8284C0 25.6569 0 23.7712 0 20V9C0 5.22876 0 3.34315 1.17157 2.17157C2.34315 1 4.22876 1 8 1H13.6471ZM5.41236 13.5C4.86008 13.5 4.41236 13.9478 4.41236 14.5C4.41236 15.0523 4.86008 15.5 5.41236 15.5H10.8241C11.3764 15.5 11.8241 15.0523 11.8241 14.5C11.8241 13.9478 11.3764 13.5 10.8241 13.5H5.41236ZM5.41236 17.55C4.86008 17.55 4.41236 17.9978 4.41236 18.55C4.41236 19.1023 4.86008 19.55 5.41236 19.55H13.53C14.0823 19.55 14.53 19.1023 14.53 18.55C14.53 17.9978 14.0823 17.55 13.53 17.55H5.41236ZM5.41236 21.6C4.86008 21.6 4.41236 22.0478 4.41236 22.6C4.41236 23.1523 4.86008 23.6 5.41236 23.6H10.8241C11.3764 23.6 11.8241 23.1523 11.8241 22.6C11.8241 22.0478 11.3764 21.6 10.8241 21.6H5.41236Z" fill="#5228F4"/>
</svg>
