<svg width="26" height="24" viewBox="0 0 26 24" fill="none" xmlns="http://www.w3.org/2000/svg">
<path d="M19.0001 5.0001C18.5711 5.0001 18.1741 4.7211 18.0431 4.2891C17.6701 3.0551 16.9321 2.3151 15.7201 1.9601C15.1901 1.8051 14.8861 1.2491 15.0411 0.719098C15.1971 0.189098 15.7541 -0.113902 16.2821 0.0400979C18.1251 0.580098 19.3961 1.8491 19.9591 3.7111C20.1191 4.2401 19.8191 4.7981 19.2911 4.9581C19.1951 4.9871 19.0971 5.0011 19.0011 5.0011L19.0001 5.0001ZM6.96013 22.2811C7.11513 21.7511 6.81113 21.1961 6.28113 21.0401C5.06913 20.6851 4.33013 19.9451 3.95813 18.7111C3.79813 18.1821 3.24013 17.8861 2.71113 18.0431C2.18213 18.2031 1.88313 18.7611 2.04313 19.2901C2.60513 21.1521 3.87713 22.4211 5.72013 22.9611C5.81413 22.9881 5.90813 23.0021 6.00113 23.0021C6.43413 23.0021 6.83313 22.7181 6.96013 22.2811ZM24.9571 7.0001C24.9571 5.8951 24.0621 5.0001 22.9571 5.0001C21.8521 5.0001 20.9571 5.8951 20.9571 7.0001V9.8531L12.5181 1.4391C11.9321 0.853098 10.9831 0.853098 10.3971 1.4391C9.81113 2.0241 9.81113 2.9751 10.3971 3.5601L15.9661 9.1121C16.2081 9.3551 16.2081 9.7491 15.9661 9.9911C15.7241 10.2331 15.3281 10.2341 15.0851 9.9911C15.0751 9.9811 7.51913 2.4391 7.51913 2.4391C6.93313 1.8531 5.98413 1.8531 5.39813 2.4391C4.81213 3.0241 4.81213 3.9751 5.39813 4.5601L12.9701 12.1091C13.2121 12.3521 13.2121 12.7461 12.9701 12.9881C12.7271 13.2311 12.3321 13.2311 12.0891 12.9881C12.0841 12.9831 5.52013 6.4381 5.52013 6.4381C4.93413 5.8521 3.98513 5.8521 3.39913 6.4381C2.81313 7.0231 2.81313 7.9741 3.39913 8.5591C3.39913 8.5591 9.97013 15.1011 9.97313 15.1041C10.2161 15.3471 10.2161 15.7421 9.97313 15.9851C9.73013 16.2281 9.33713 16.2281 9.09413 15.9851L5.52113 12.4371C4.93613 11.8511 3.98613 11.8511 3.40013 12.4371C2.81413 13.0231 2.81413 13.9721 3.40013 14.5581L10.3291 21.4621C12.0191 23.1521 14.2401 23.9971 16.4601 23.9971C18.6801 23.9971 20.9011 23.1521 22.5911 21.4621C24.1191 19.9351 24.9601 17.9031 24.9601 15.7431V7.0001H24.9571Z" fill="#DFD7FE"/>
<path d="M17.0001 5.0001C16.5711 5.0001 16.1741 4.7211 16.0431 4.2891C15.6701 3.0551 14.9321 2.3151 13.7201 1.9601C13.1901 1.8051 12.8861 1.2491 13.0411 0.719098C13.1971 0.189098 13.7541 -0.113902 14.2821 0.0400979C16.1251 0.580098 17.3961 1.8491 17.9591 3.7111C18.1191 4.2401 17.8191 4.7981 17.2911 4.9581C17.1951 4.9871 17.0971 5.0011 17.0011 5.0011L17.0001 5.0001ZM4.96013 22.2811C5.11513 21.7511 4.81113 21.1961 4.28113 21.0401C3.06913 20.6851 2.33013 19.9451 1.95813 18.7111C1.79813 18.1821 1.24013 17.8861 0.711129 18.0431C0.182129 18.2031 -0.116871 18.7611 0.0431293 19.2901C0.605129 21.1521 1.87713 22.4211 3.72013 22.9611C3.81413 22.9881 3.90813 23.0021 4.00113 23.0021C4.43413 23.0021 4.83313 22.7181 4.96013 22.2811ZM22.9571 7.0001C22.9571 5.8951 22.0621 5.0001 20.9571 5.0001C19.8521 5.0001 18.9571 5.8951 18.9571 7.0001V9.8531L10.5181 1.4391C9.93213 0.853098 8.98313 0.853098 8.39713 1.4391C7.81113 2.0241 7.81113 2.9751 8.39713 3.5601L13.9661 9.1121C14.2081 9.3551 14.2081 9.7491 13.9661 9.9911C13.7241 10.2331 13.3281 10.2341 13.0851 9.9911C13.0751 9.9811 5.51913 2.4391 5.51913 2.4391C4.93313 1.8531 3.98413 1.8531 3.39813 2.4391C2.81213 3.0241 2.81213 3.9751 3.39813 4.5601L10.9701 12.1091C11.2121 12.3521 11.2121 12.7461 10.9701 12.9881C10.7271 13.2311 10.3321 13.2311 10.0891 12.9881C10.0841 12.9831 3.52013 6.4381 3.52013 6.4381C2.93413 5.8521 1.98513 5.8521 1.39913 6.4381C0.813129 7.0231 0.813129 7.9741 1.39913 8.5591C1.39913 8.5591 7.97013 15.1011 7.97313 15.1041C8.21613 15.3471 8.21613 15.7421 7.97313 15.9851C7.73013 16.2281 7.33713 16.2281 7.09413 15.9851L3.52113 12.4371C2.93613 11.8511 1.98613 11.8511 1.40013 12.4371C0.814129 13.0231 0.814129 13.9721 1.40013 14.5581L8.32913 21.4621C10.0191 23.1521 12.2401 23.9971 14.4601 23.9971C16.6801 23.9971 18.9011 23.1521 20.5911 21.4621C22.1191 19.9351 22.9601 17.9031 22.9601 15.7431V7.0001H22.9571Z" fill="#5228F4"/>
</svg>
