<svg width="48" height="48" viewBox="0 0 48 48" fill="none" xmlns="http://www.w3.org/2000/svg">
<rect width="48" height="48" rx="10" fill="#5228F4"/>
<path fill-rule="evenodd" clip-rule="evenodd" d="M33.7071 14.2929C34.0976 14.6834 34.0976 15.3166 33.7071 15.7071L15.7071 33.7071C15.3166 34.0976 14.6834 34.0976 14.2929 33.7071C13.9024 33.3166 13.9024 32.6834 14.2929 32.2929L32.2929 14.2929C32.6834 13.9024 33.3166 13.9024 33.7071 14.2929Z" fill="#FEFEFE"/>
<path d="M24.5858 24H24C23.4477 24 23 24.4477 23 25V25.5858L24.5858 24Z" fill="#FEFEFE"/>
<path d="M23.0633 28.3509C23.2054 28.7301 23.5712 29 24 29H30C30.5523 29 31 28.5523 31 28V25C31 24.4477 30.5523 24 30 24H27.4142L23.0633 28.3509Z" fill="#FEFEFE"/>
<path d="M32.518 16.0677C32.3528 16.0236 32.1792 16 32 16H16C14.8954 16 14 16.8954 14 18V30C14 31.1046 14.8954 32 16 32H16.5858L18.5858 30H16V18H30.5858L32.518 16.0677Z" fill="#FEFEFE"/>
<path d="M33.9323 17.482L32 19.4142V30H21.4142L19.4142 32H32C33.1046 32 34 31.1046 34 30V18C34 17.8208 33.9764 17.6472 33.9323 17.482Z" fill="#FEFEFE"/>
</svg>
