<svg width="24" height="24" viewBox="0 0 24 24" fill="none" xmlns="http://www.w3.org/2000/svg">
<path d="M7.43353 3.64162L9.52228 3.11943C9.83956 3.04011 10.1654 3 10.4924 3H12.3431C13.404 3 14.4214 3.42143 15.1716 4.17157L17.8284 6.82843C18.5786 7.57857 19 8.59599 19 9.65685V17C19 19.2091 17.2091 21 15 21H10.5H7.61803C7.2116 21 6.81074 20.9054 6.44721 20.7236C5.56027 20.2801 5 19.3736 5 18.382V15V6.75842C5 6.25966 5.11612 5.76775 5.33918 5.32165C5.75861 4.48279 6.52365 3.86909 7.43353 3.64162Z" fill="#EFEAFF"/>
<path fill-rule="evenodd" clip-rule="evenodd" d="M14 2C14.5523 2 15 2.44772 15 3V7H19C19.5523 7 20 7.44772 20 8C20 8.55228 19.5523 9 19 9H15C14.4696 9 13.9609 8.78929 13.5858 8.41421C13.2107 8.03914 13 7.53043 13 7V3C13 2.44772 13.4477 2 14 2Z" fill="#5228F4"/>
<path fill-rule="evenodd" clip-rule="evenodd" d="M6.29289 4.29289C6.48043 4.10536 6.73478 4 7 4H13.5858L18 8.41421V12C18 12.5523 18.4477 13 19 13C19.5523 13 20 12.5523 20 12V8C20 7.73478 19.8946 7.48043 19.7071 7.29289L14.7071 2.29289C14.5196 2.10536 14.2652 2 14 2H7C6.20435 2 5.44129 2.31607 4.87868 2.87868C4.31607 3.44129 4 4.20435 4 5V19C4 19.7957 4.31607 20.5587 4.87868 21.1213C5.44129 21.6839 6.20435 22 7 22H10C10.5523 22 11 21.5523 11 21C11 20.4477 10.5523 20 10 20H7C6.73478 20 6.48043 19.8946 6.29289 19.7071C6.10536 19.5196 6 19.2652 6 19V5C6 4.73478 6.10536 4.48043 6.29289 4.29289ZM7 8C7 7.44772 7.44772 7 8 7H10C10.5523 7 11 7.44772 11 8C11 8.55228 10.5523 9 10 9H8C7.44772 9 7 8.55228 7 8ZM8 11C7.44772 11 7 11.4477 7 12C7 12.5523 7.44772 13 8 13H13C13.5523 13 14 12.5523 14 12C14 11.4477 13.5523 11 13 11H8ZM13.9194 14.6058C13.7018 14.0982 13.114 13.8631 12.6063 14.0806C12.0987 14.2982 11.8636 14.8861 12.0811 15.3937L14.162 20.249C14.8546 21.8652 17.1459 21.8652 17.8385 20.249L19.9194 15.3937C20.137 14.8861 19.9018 14.2982 19.3942 14.0806C18.8865 13.8631 18.2987 14.0982 18.0811 14.6058L16.0003 19.4612L13.9194 14.6058Z" fill="#5228F4"/>
</svg>
