<svg width="24" height="31" viewBox="0 0 24 31" fill="none" xmlns="http://www.w3.org/2000/svg">
<path d="M4.78573 3.30348L8.52299 2.36917C8.84027 2.28985 9.16608 2.24974 9.49313 2.24974H13.3436C14.4045 2.24974 15.4219 2.67117 16.1721 3.42132L21.3287 8.57789C22.0788 9.32804 22.5002 10.3455 22.5002 11.4063V25.2487C22.5002 27.4579 20.7094 29.2487 18.5002 29.2487H9.75068H5.42789C4.81825 29.2487 4.21699 29.1068 3.67172 28.8342C2.34135 28.169 1.50098 26.8092 1.50098 25.3218V20.2491V7.69385C1.50098 7.07287 1.64556 6.46041 1.92327 5.90499L2.17817 5.3952C2.70038 4.35078 3.6529 3.58669 4.78573 3.30348Z" fill="#FAFAFA"/>
<path fill-rule="evenodd" clip-rule="evenodd" d="M14.9999 0.749802C15.8283 0.749802 16.4999 1.42135 16.4999 2.24975V8.24952H22.4997C23.3281 8.24952 23.9996 8.92107 23.9996 9.74947C23.9996 10.5779 23.3281 11.2494 22.4997 11.2494H16.4999C15.7043 11.2494 14.9412 10.9334 14.3786 10.3708C13.8161 9.80818 13.5 9.04515 13.5 8.24952V2.24975C13.5 1.42135 14.1715 0.749802 14.9999 0.749802Z" fill="#AFAFAF"/>
<path fill-rule="evenodd" clip-rule="evenodd" d="M3.43922 4.18901C3.72051 3.90772 4.10203 3.74969 4.49984 3.74969H14.3782L20.9993 10.3708V15.7492C20.9993 16.5776 21.6708 17.2492 22.4992 17.2492C23.3276 17.2492 23.9991 16.5776 23.9991 15.7492V9.74947C23.9991 9.35166 23.8411 8.97014 23.5598 8.68885L16.0601 1.18912C15.7788 0.907831 15.3973 0.749802 14.9995 0.749802H4.49984C3.30641 0.749802 2.16186 1.22389 1.31797 2.06777C0.474089 2.91165 0 4.0562 0 5.24963V26.2489C0 27.4423 0.474089 28.5868 1.31797 29.4307C2.16186 30.2746 3.30641 30.7487 4.49984 30.7487H8.99968C9.82808 30.7487 10.4996 30.0771 10.4996 29.2487C10.4996 28.4204 9.82808 27.7488 8.99968 27.7488H4.49984C4.10203 27.7488 3.72051 27.5908 3.43922 27.3095C3.15792 27.0282 2.99989 26.6467 2.99989 26.2489V5.24963C2.99989 4.85182 3.15792 4.47031 3.43922 4.18901ZM4.49959 9.74947C4.49959 8.92107 5.17114 8.24953 5.99953 8.24953H8.99943C9.82783 8.24953 10.4994 8.92107 10.4994 9.74947C10.4994 10.5779 9.82783 11.2494 8.99943 11.2494H5.99953C5.17114 11.2494 4.49959 10.5779 4.49959 9.74947ZM5.99961 14.2493C5.17121 14.2493 4.49966 14.9208 4.49966 15.7492C4.49966 16.5776 5.17121 17.2492 5.99961 17.2492H13.4993C14.3277 17.2492 14.9993 16.5776 14.9993 15.7492C14.9993 14.9208 14.3277 14.2493 13.4993 14.2493H5.99961ZM14.8787 19.6579C14.5524 18.8965 13.6706 18.5437 12.9092 18.8701C12.1478 19.1964 11.795 20.0782 12.1214 20.8396L15.2425 28.1223C16.2815 30.5465 19.7182 30.5465 20.7572 28.1223L23.8784 20.8396C24.2047 20.0782 23.852 19.1964 23.0906 18.8701C22.3291 18.5437 21.4474 18.8965 21.121 19.6579L17.9999 26.9406L14.8787 19.6579Z" fill="#AFAFAF"/>
</svg>
