<svg width="22" height="27" viewBox="0 0 22 27" fill="none" xmlns="http://www.w3.org/2000/svg">
<path d="M4.48536 2.25373L7.62271 1.4694C7.93999 1.39008 8.26581 1.34997 8.59285 1.34997H11.8435C12.9043 1.34997 13.9217 1.77139 14.6719 2.52154L19.0786 6.92824C19.8287 7.67838 20.2502 8.6958 20.2502 9.75666V21.6494C20.2502 23.8585 18.4593 25.6494 16.2502 25.6494H8.77542H4.88485C4.33617 25.6494 3.79503 25.5217 3.30428 25.2763C2.10693 24.6776 1.35059 23.4538 1.35059 22.1151V17.5496V6.34414C1.35059 5.72316 1.49517 5.11071 1.77288 4.55529L1.8778 4.34545C2.40001 3.30103 3.35253 2.53694 4.48536 2.25373Z" fill="#FAFAFA"/>
<path fill-rule="evenodd" clip-rule="evenodd" d="M13.4999 0C14.2454 0 14.8498 0.604402 14.8498 1.34997V6.74985H20.2497C20.9953 6.74985 21.5997 7.35425 21.5997 8.09981C21.5997 8.84538 20.9953 9.44978 20.2497 9.44978H14.8498C14.1338 9.44978 13.447 9.16533 12.9407 8.65899C12.4344 8.15265 12.1499 7.46591 12.1499 6.74985V1.34997C12.1499 0.604402 12.7543 0 13.4999 0Z" fill="#AFAFAF"/>
<path fill-rule="evenodd" clip-rule="evenodd" d="M3.09533 3.09533C3.3485 2.84217 3.69187 2.69994 4.04991 2.69994H12.9405L18.8996 8.65899V13.4997C18.8996 14.2453 19.504 14.8497 20.2495 14.8497C20.9951 14.8497 21.5995 14.2453 21.5995 13.4997V8.09981C21.5995 7.74178 21.4573 7.39841 21.2041 7.14524L14.4543 0.395396C14.2011 0.142228 13.8577 0 13.4997 0H4.04991C2.97581 0 1.9457 0.426685 1.18619 1.18619C0.426685 1.94569 0 2.9758 0 4.04991V22.9495C0 24.0236 0.426685 25.0537 1.18619 25.8132C1.94569 26.5727 2.9758 26.9994 4.04991 26.9994H8.09981C8.84538 26.9994 9.44978 26.395 9.44978 25.6494C9.44978 24.9038 8.84538 24.2994 8.09981 24.2994H4.04991C3.69187 24.2994 3.3485 24.1572 3.09533 23.904C2.84217 23.6509 2.69994 23.3075 2.69994 22.9495V4.04991C2.69994 3.69187 2.84217 3.3485 3.09533 3.09533ZM4.04963 8.09981C4.04963 7.35425 4.65403 6.74985 5.3996 6.74985H8.09953C8.8451 6.74985 9.4495 7.35425 9.4495 8.09981C9.4495 8.84538 8.8451 9.44978 8.09953 9.44978H5.3996C4.65403 9.44978 4.04963 8.84538 4.04963 8.09981ZM5.39942 12.1497C4.65385 12.1497 4.04945 12.7541 4.04945 13.4997C4.04945 14.2453 4.65385 14.8497 5.39942 14.8497H12.1493C12.8948 14.8497 13.4992 14.2453 13.4992 13.4997C13.4992 12.7541 12.8948 12.1497 12.1493 12.1497H5.39942ZM13.3908 17.0175C13.0971 16.3322 12.3034 16.0148 11.6182 16.3085C10.9329 16.6022 10.6154 17.3958 10.9091 18.0811L13.7182 24.6356C14.6533 26.8174 17.7464 26.8174 18.6815 24.6356L21.4906 18.0811C21.7843 17.3958 21.4668 16.6022 20.7815 16.3085C20.0963 16.0148 19.3026 16.3322 19.0089 17.0175L16.1998 23.572L13.3908 17.0175Z" fill="#AFAFAF"/>
</svg>
