<svg width="30" height="30" viewBox="0 0 30 30" fill="none" xmlns="http://www.w3.org/2000/svg">
<path fill-rule="evenodd" clip-rule="evenodd" d="M17.5 2.5C18.1904 2.5 18.75 3.05964 18.75 3.75V8.75H23.75C24.4404 8.75 25 9.30964 25 10C25 10.6904 24.4404 11.25 23.75 11.25H18.75C18.087 11.25 17.4511 10.9866 16.9822 10.5178C16.5134 10.0489 16.25 9.41304 16.25 8.75V3.75C16.25 3.05964 16.8096 2.5 17.5 2.5Z" fill="#AFAFAF"/>
<path fill-rule="evenodd" clip-rule="evenodd" d="M7.86612 5.36612C8.10054 5.1317 8.41848 5 8.75 5H16.9822L22.5 10.5178V15C22.5 15.6904 23.0596 16.25 23.75 16.25C24.4404 16.25 25 15.6904 25 15V10C25 9.66848 24.8683 9.35054 24.6339 9.11612L18.3839 2.86612C18.1495 2.6317 17.8315 2.5 17.5 2.5H8.75C7.75544 2.5 6.80161 2.89509 6.09835 3.59835C5.39509 4.30161 5 5.25544 5 6.25V23.75C5 24.7446 5.39509 25.6984 6.09835 26.4017C6.80161 27.1049 7.75544 27.5 8.75 27.5H12.5C13.1904 27.5 13.75 26.9404 13.75 26.25C13.75 25.5596 13.1904 25 12.5 25H8.75C8.41848 25 8.10054 24.8683 7.86612 24.6339C7.6317 24.3995 7.5 24.0815 7.5 23.75V6.25C7.5 5.91848 7.6317 5.60054 7.86612 5.36612ZM8.75 10C8.75 9.30964 9.30964 8.75 10 8.75H12.5C13.1904 8.75 13.75 9.30964 13.75 10C13.75 10.6904 13.1904 11.25 12.5 11.25H10C9.30964 11.25 8.75 10.6904 8.75 10ZM10 13.75C9.30964 13.75 8.75 14.3096 8.75 15C8.75 15.6904 9.30964 16.25 10 16.25H16.25C16.9404 16.25 17.5 15.6904 17.5 15C17.5 14.3096 16.9404 13.75 16.25 13.75H10ZM17.3993 18.2573C17.1273 17.6228 16.3925 17.3288 15.7579 17.6008C15.1234 17.8727 14.8294 18.6076 15.1014 19.2421L17.7025 25.3113C18.5683 27.3315 21.4324 27.3315 22.2982 25.3113L24.8993 19.2421C25.1712 18.6076 24.8773 17.8727 24.2427 17.6008C23.6082 17.3288 22.8733 17.6228 22.6014 18.2573L20.0003 24.3265L17.3993 18.2573Z" fill="#AFAFAF"/>
</svg>
