<svg width="30" height="31" viewBox="0 0 30 31" fill="none" xmlns="http://www.w3.org/2000/svg">
<path d="M6.14738 20.5H3V10.5H6.14738C6.98413 7.62078 11.233 3.972 15.0027 3.55647C15.5517 3.49596 16 3.94772 16 4.50001V26.5C16 27.0523 15.5517 27.504 15.0027 27.4435C11.233 27.028 6.98413 23.3792 6.14738 20.5Z" fill="#FAFAFA"/>
<path fill-rule="evenodd" clip-rule="evenodd" d="M15 4.56392C13.394 4.77208 11.6128 5.66229 10.1038 6.88206C8.54694 8.14049 7.44635 9.61364 7.10766 10.7791L6.89814 11.5H4V19.5H6.89814L7.10766 20.2209C7.44635 21.3864 8.54694 22.8595 10.1038 24.118C11.6128 25.3377 13.394 26.2279 15 26.4361V4.56392ZM14.8932 2.56249C16.1068 2.42872 17 3.42759 17 4.50001V26.5C17 27.5724 16.1068 28.5713 14.8932 28.4375C12.7583 28.2022 10.5783 27.0732 8.84654 25.6734C7.36735 24.4777 6.09322 22.985 5.44908 21.5H2V9.50001H5.44908C6.09322 8.01496 7.36735 6.5223 8.84654 5.32665C10.5783 3.92684 12.7583 2.79782 14.8932 2.56249Z" fill="#AFAFAF"/>
<path d="M23 2.5C23 2.5 27 6.5 27 15.5C27 24.5 23 28.5 23 28.5" stroke="#AFAFAF" stroke-width="2" stroke-linecap="round"/>
<path d="M20 6.5C20 6.5 23 9.26923 23 15.5C23 21.7308 20 24.5 20 24.5" stroke="#AFAFAF" stroke-width="2" stroke-linecap="round"/>
</svg>
