<svg width="30" height="30" viewBox="0 0 30 30" fill="none" xmlns="http://www.w3.org/2000/svg">
<path d="M6.14738 20H3V10H6.14738C6.98413 7.12077 11.233 3.47199 15.0027 3.05647C15.5517 2.99596 16 3.44772 16 4V26C16 26.5523 15.5517 27.004 15.0027 26.9435C11.233 26.528 6.98413 22.8792 6.14738 20Z" fill="#EFEAFF"/>
<path fill-rule="evenodd" clip-rule="evenodd" d="M15 4.06392C13.394 4.27208 11.6128 5.16228 10.1038 6.38205C8.54694 7.64048 7.44635 9.11363 7.10766 10.2791L6.89814 11H4V19H6.89814L7.10766 19.7209C7.44635 20.8864 8.54694 22.3595 10.1038 23.618C11.6128 24.8377 13.394 25.7279 15 25.9361V4.06392ZM14.8932 2.06249C16.1068 1.92871 17 2.92759 17 4V26C17 27.0724 16.1068 28.0713 14.8932 27.9375C12.7583 27.7022 10.5783 26.5732 8.84654 25.1734C7.36735 23.9777 6.09322 22.485 5.44908 21H2V9H5.44908C6.09322 7.51496 7.36735 6.02229 8.84654 4.82664C10.5783 3.42684 12.7583 2.29781 14.8932 2.06249Z" fill="#5228F4"/>
<path d="M23 2C23 2 27 6 27 15C27 24 23 28 23 28" stroke="#5228F4" stroke-width="2" stroke-linecap="round"/>
<path d="M20 6C20 6 23 8.76923 23 15C23 21.2308 20 24 20 24" stroke="#5228F4" stroke-width="2" stroke-linecap="round"/>
</svg>
