<svg width="30" height="30" viewBox="0 0 30 30" fill="none" xmlns="http://www.w3.org/2000/svg">
<path fill-rule="evenodd" clip-rule="evenodd" d="M4 15C2.89543 15 2 15.8954 2 17V26C2 27.1046 2.89543 28 4 28H9C10.1046 28 11 27.1046 11 26V17C11 15.8954 10.1046 15 9 15H4ZM21 15C19.8954 15 19 15.8954 19 17V26C19 27.1046 19.8954 28 21 28H26C27.1046 28 28 27.1046 28 26V17C28 15.8954 27.1046 15 26 15H21Z" fill="#EFEAFF"/>
<path fill-rule="evenodd" clip-rule="evenodd" d="M4 17H9V26H4L4 17ZM2 17C2 15.8954 2.89543 15 4 15H9C10.1046 15 11 15.8954 11 17V26C11 27.1046 10.1046 28 9 28H4C2.89543 28 2 27.1046 2 26V17ZM21 17H26V26H21V17ZM19 17C19 15.8954 19.8954 15 21 15H26C27.1046 15 28 15.8954 28 17V26C28 27.1046 27.1046 28 26 28H21C19.8954 28 19 27.1046 19 26V17Z" fill="#5228F4"/>
<path fill-rule="evenodd" clip-rule="evenodd" d="M15 4C8.92487 4 4 8.92487 4 15V18H2V15C2 7.8203 7.8203 2 15 2C22.1797 2 28 7.8203 28 15V18H26V15C26 8.92487 21.0751 4 15 4Z" fill="#5228F4"/>
</svg>
