<svg width="30" height="31" viewBox="0 0 30 31" fill="none" xmlns="http://www.w3.org/2000/svg">
<path fill-rule="evenodd" clip-rule="evenodd" d="M4 15.5C2.89543 15.5 2 16.3954 2 17.5V26.5C2 27.6046 2.89543 28.5 4 28.5H9C10.1046 28.5 11 27.6046 11 26.5V17.5C11 16.3954 10.1046 15.5 9 15.5H4ZM21 15.5C19.8954 15.5 19 16.3954 19 17.5V26.5C19 27.6046 19.8954 28.5 21 28.5H26C27.1046 28.5 28 27.6046 28 26.5V17.5C28 16.3954 27.1046 15.5 26 15.5H21Z" fill="#FAFAFA"/>
<path fill-rule="evenodd" clip-rule="evenodd" d="M4 17.5H9V26.5H4L4 17.5ZM2 17.5C2 16.3954 2.89543 15.5 4 15.5H9C10.1046 15.5 11 16.3954 11 17.5V26.5C11 27.6046 10.1046 28.5 9 28.5H4C2.89543 28.5 2 27.6046 2 26.5V17.5ZM21 17.5H26V26.5H21V17.5ZM19 17.5C19 16.3954 19.8954 15.5 21 15.5H26C27.1046 15.5 28 16.3954 28 17.5V26.5C28 27.6046 27.1046 28.5 26 28.5H21C19.8954 28.5 19 27.6046 19 26.5V17.5Z" fill="#AFAFAF"/>
<path fill-rule="evenodd" clip-rule="evenodd" d="M15 4.5C8.92487 4.5 4 9.42487 4 15.5V18.5H2V15.5C2 8.3203 7.8203 2.5 15 2.5C22.1797 2.5 28 8.3203 28 15.5V18.5H26V15.5C26 9.42487 21.0751 4.5 15 4.5Z" fill="#AFAFAF"/>
</svg>
