<svg width="30" height="30" viewBox="0 0 30 30" fill="none" xmlns="http://www.w3.org/2000/svg">
<path d="M3.5 23.2094V8.76777C3.5 8.58948 3.51265 8.41142 3.53787 8.23492C3.80304 6.37874 5.39274 5 7.26777 5H22.5C24.7091 5 26.5 6.79086 26.5 9V21C26.5 23.2091 24.7091 25 22.5 25H5.29057C5.09812 25 4.90692 24.969 4.72434 24.9081C3.99318 24.6644 3.5 23.9801 3.5 23.2094Z" fill="#EFEAFF"/>
<path fill-rule="evenodd" clip-rule="evenodd" d="M4.5 5.5H25.5V24.5H4.5L4.5 5.5ZM2.5 5.5C2.5 4.39543 3.39543 3.5 4.5 3.5H25.5C26.6046 3.5 27.5 4.39543 27.5 5.5V24.5C27.5 25.6046 26.6046 26.5 25.5 26.5H4.5C3.39543 26.5 2.5 25.6046 2.5 24.5V5.5ZM9.03896 13.0965C9.63013 13.0965 9.91648 13.3503 9.94419 13.7853H11.6068C11.5884 12.5345 10.6093 11.7096 9.03896 11.7187C7.50562 11.7096 6.41566 12.5254 6.41566 13.731C6.41566 14.728 7.1269 15.29 8.28153 15.5257L8.92812 15.6707C9.65784 15.8339 9.92571 16.0152 9.92571 16.3234C9.92571 16.6587 9.61166 16.8944 9.02049 16.9035C8.33695 16.8944 7.92129 16.5862 7.89357 15.997H6.24939C6.26786 17.5652 7.36707 18.2903 9.05744 18.2813C10.7016 18.2903 11.6807 17.5742 11.6807 16.3234C11.6807 15.3354 11.0526 14.6646 9.6486 14.3655L9.11286 14.2567C8.50322 14.1298 8.1984 13.9485 8.20763 13.6222C8.21687 13.314 8.47551 13.0965 9.03896 13.0965ZM16.0541 11.7912H17.7721V15.9065C17.7814 17.3658 16.6452 18.2904 14.9641 18.2813C13.2922 18.2904 12.1653 17.3658 12.1745 15.9065V11.7912H13.8926V15.7614C13.8926 16.3869 14.336 16.831 14.9641 16.831C15.6107 16.831 16.0541 16.3869 16.0541 15.7614V11.7912ZM18.4291 18.2088V11.7912H21.2186C22.715 11.8003 23.4909 12.4348 23.4909 13.4047C23.4909 14.1208 22.9829 14.6556 22.2347 14.8006V14.8731C23.066 14.9003 23.7496 15.4895 23.7496 16.3959C23.7496 17.4474 22.8813 18.2088 21.4588 18.2088H18.4291ZM20.1471 16.8491H21.0154C21.6343 16.8582 21.9391 16.6225 21.9391 16.1784C21.9391 15.7252 21.5973 15.4532 21.0339 15.4532H20.1471V16.8491ZM20.1471 14.4018H20.9046C21.3941 14.4018 21.7267 14.1752 21.7359 13.7673C21.7267 13.3594 21.4034 13.1237 20.9415 13.1328H20.1471V14.4018Z" fill="#5228F4"/>
</svg>
