<svg width="30" height="31" viewBox="0 0 30 31" fill="none" xmlns="http://www.w3.org/2000/svg">
<path d="M3.5 23.7094V9.26777C3.5 9.08948 3.51265 8.91142 3.53787 8.73492C3.80304 6.87874 5.39274 5.5 7.26777 5.5H22.5C24.7091 5.5 26.5 7.29086 26.5 9.5V21.5C26.5 23.7091 24.7091 25.5 22.5 25.5H5.29057C5.09812 25.5 4.90692 25.469 4.72434 25.4081C3.99318 25.1644 3.5 24.4801 3.5 23.7094Z" fill="#FAFAFA"/>
<path fill-rule="evenodd" clip-rule="evenodd" d="M4.5 6H25.5V25H4.5L4.5 6ZM2.5 6C2.5 4.89543 3.39543 4 4.5 4H25.5C26.6046 4 27.5 4.89543 27.5 6V25C27.5 26.1046 26.6046 27 25.5 27H4.5C3.39543 27 2.5 26.1046 2.5 25V6ZM9.03896 13.5965C9.63013 13.5965 9.91648 13.8503 9.94419 14.2853H11.6068C11.5884 13.0345 10.6093 12.2096 9.03896 12.2187C7.50562 12.2096 6.41566 13.0254 6.41566 14.231C6.41566 15.228 7.1269 15.79 8.28153 16.0257L8.92812 16.1707C9.65784 16.3339 9.92571 16.5152 9.92571 16.8234C9.92571 17.1587 9.61166 17.3944 9.02049 17.4035C8.33695 17.3944 7.92129 17.0862 7.89357 16.497H6.24939C6.26786 18.0652 7.36707 18.7903 9.05744 18.7813C10.7016 18.7903 11.6807 18.0742 11.6807 16.8234C11.6807 15.8354 11.0526 15.1646 9.6486 14.8655L9.11286 14.7567C8.50322 14.6298 8.1984 14.4485 8.20763 14.1222C8.21687 13.814 8.47551 13.5965 9.03896 13.5965ZM16.0541 12.2912H17.7721V16.4065C17.7814 17.8658 16.6452 18.7904 14.9641 18.7813C13.2922 18.7904 12.1653 17.8658 12.1745 16.4065V12.2912H13.8926V16.2614C13.8926 16.8869 14.336 17.331 14.9641 17.331C15.6107 17.331 16.0541 16.8869 16.0541 16.2614V12.2912ZM18.4291 18.7088V12.2912H21.2186C22.715 12.3003 23.4909 12.9348 23.4909 13.9047C23.4909 14.6208 22.9829 15.1556 22.2347 15.3006V15.3731C23.066 15.4003 23.7496 15.9895 23.7496 16.8959C23.7496 17.9474 22.8813 18.7088 21.4588 18.7088H18.4291ZM20.1471 17.3491H21.0154C21.6343 17.3582 21.9391 17.1225 21.9391 16.6784C21.9391 16.2252 21.5973 15.9532 21.0339 15.9532H20.1471V17.3491ZM20.1471 14.9018H20.9046C21.3941 14.9018 21.7267 14.6752 21.7359 14.2673C21.7267 13.8594 21.4034 13.6237 20.9415 13.6328H20.1471V14.9018Z" fill="#AFAFAF"/>
</svg>
