<svg width="30" height="31" viewBox="0 0 30 31" fill="none" xmlns="http://www.w3.org/2000/svg">
<path d="M3 4.5C3 3.94772 3.44772 3.5 4 3.5H26C26.5523 3.5 27 3.94772 27 4.5V10.5C27 11.0523 26.5523 11.5 26 11.5H4C3.44772 11.5 3 11.0523 3 10.5V4.5Z" fill="#EFEAFF" stroke="#5228F4" stroke-width="2"/>
<path d="M3 16.5C3 15.9477 3.44772 15.5 4 15.5H12C12.5523 15.5 13 15.9477 13 16.5V26.5C13 27.0523 12.5523 27.5 12 27.5H4C3.44772 27.5 3 27.0523 3 26.5V16.5Z" fill="#EFEAFF" stroke="#5228F4" stroke-width="2"/>
<path d="M17 16.5C17 15.9477 17.4477 15.5 18 15.5H26C26.5523 15.5 27 15.9477 27 16.5V21.5C27 22.0523 26.5523 22.5 26 22.5H18C17.4477 22.5 17 22.0523 17 21.5V16.5Z" fill="#EFEAFF" stroke="#5228F4" stroke-width="2"/>
</svg>
