<svg width="30" height="30" viewBox="0 0 30 30" fill="none" xmlns="http://www.w3.org/2000/svg">
<path d="M4 3H26C26.5523 3 27 3.44772 27 4V10C27 10.5523 26.5523 11 26 11H4C3.44772 11 3 10.5523 3 10V4C3 3.44772 3.44772 3 4 3Z" fill="#FAFAFA" stroke="#AFAFAF" stroke-width="2"/>
<path d="M4 15H12C12.5523 15 13 15.4477 13 16V26C13 26.5523 12.5523 27 12 27H4C3.44772 27 3 26.5523 3 26V16C3 15.4477 3.44772 15 4 15Z" fill="#FAFAFA" stroke="#AFAFAF" stroke-width="2"/>
<path d="M18 15H26C26.5523 15 27 15.4477 27 16V21C27 21.5523 26.5523 22 26 22H18C17.4477 22 17 21.5523 17 21V16C17 15.4477 17.4477 15 18 15Z" fill="#FAFAFA" stroke="#AFAFAF" stroke-width="2"/>
</svg>
