<svg width="46" height="46" viewBox="0 0 46 46" fill="none" xmlns="http://www.w3.org/2000/svg">
<path d="M5.75 29.9C12.2187 27.6 17.6094 28.75 23 40.25C24.0781 33.35 26.2344 27.6 29.4687 21.85M35.9375 14.95C34.7938 14.95 33.6969 14.4654 32.8881 13.6027C32.0794 12.74 31.625 11.57 31.625 10.35C31.625 9.13 32.0794 7.95998 32.8881 7.09731C33.6969 6.23464 34.7938 5.75 35.9375 5.75C37.0812 5.75 38.1781 6.23464 38.9869 7.09731C39.7956 7.95998 40.25 9.13 40.25 10.35C40.25 11.57 39.7956 12.74 38.9869 13.6027C38.1781 14.4654 37.0812 14.95 35.9375 14.95Z" stroke="black" stroke-width="2" stroke-linecap="round" stroke-linejoin="round"/>
</svg>
