<svg width="24" height="24" viewBox="0 0 24 24" fill="none" xmlns="http://www.w3.org/2000/svg">
<path d="M1.32584 17.8215C0.801138 18.3463 1.01075 19.2397 1.71411 19.4764L6.98432 21.2496C7.70424 21.4919 8.49923 21.3054 9.03634 20.7683L12.8165 16.9881V16.9881C13.471 17.6425 14.532 17.6424 15.1864 16.9879L22.0585 10.1141C22.9222 9.25012 23.4073 8.07846 23.4071 6.85685C23.407 5.63524 22.9215 4.46374 22.0575 3.60006C21.1936 2.73638 20.022 2.25128 18.8003 2.25146C17.5787 2.25165 16.4072 2.73712 15.5435 3.60106L1.32584 17.8215ZM11.0226 12.3661C10.6321 11.9756 10.6321 11.3425 11.0225 10.952L16.9585 5.01506C17.4472 4.52626 18.11 4.25161 18.8012 4.25152C19.1434 4.25147 19.4823 4.31883 19.7985 4.44975C20.1147 4.58068 20.402 4.7726 20.644 5.01456C20.8861 5.25652 21.0781 5.54378 21.2091 5.85994C21.3401 6.1761 21.4075 6.51497 21.4076 6.8572C21.4076 7.19944 21.3403 7.53832 21.2094 7.85452C21.0784 8.17072 20.8865 8.45803 20.6445 8.70006L14.7087 14.6377C14.3181 15.0284 13.6849 15.0284 13.2943 14.6378L11.0226 12.3661ZM10.6952 14.867C11.0858 15.2575 11.0859 15.8907 10.6953 16.2813L7.62255 19.3541L3.88055 18.0941L8.19458 13.7809C8.58506 13.3905 9.21806 13.3904 9.60858 13.7808L10.6952 14.867Z" fill="black"/>
</svg>
