<svg width="24" height="24" viewBox="0 0 24 24" fill="none" xmlns="http://www.w3.org/2000/svg">
<path fill-rule="evenodd" clip-rule="evenodd" d="M8.10557 2.55279C8.27496 2.214 8.62123 2 9 2H15C15.3788 2 15.725 2.214 15.8944 2.55279L17.618 6H20C20.5523 6 21 6.44772 21 7C21 7.55228 20.5523 8 20 8H19V19C19 19.7957 18.6839 20.5587 18.1213 21.1213C17.5587 21.6839 16.7957 22 16 22H8C7.20435 22 6.44129 21.6839 5.87868 21.1213C5.31607 20.5587 5 19.7957 5 19V8H4C3.44772 8 3 7.55228 3 7C3 6.44772 3.44772 6 4 6H6.38197L8.10557 2.55279ZM7 8.00022C7.00671 8.00021 7.01342 8.00014 7.02012 8H16.9799C16.9866 8.00014 16.9933 8.00021 17 8.00022V19C17 19.2652 16.8946 19.5196 16.7071 19.7071C16.5196 19.8946 16.2652 20 16 20H8C7.73478 20 7.48043 19.8946 7.29289 19.7071C7.10536 19.5196 7 19.2652 7 19V8.00022ZM15.382 6H8.61803L9.61803 4H14.382L15.382 6ZM10 10C10.5523 10 11 10.4477 11 11V17C11 17.5523 10.5523 18 10 18C9.44772 18 9 17.5523 9 17V11C9 10.4477 9.44772 10 10 10ZM14 10C14.5523 10 15 10.4477 15 11V17C15 17.5523 14.5523 18 14 18C13.4477 18 13 17.5523 13 17V11C13 10.4477 13.4477 10 14 10Z" fill="black"/>
</svg>
