<svg width="23" height="23" viewBox="0 0 23 23" fill="none" xmlns="http://www.w3.org/2000/svg">
<g clip-path="url(#clip0_668_179)">
<path d="M10.958 2.29004H3.37314C2.7984 2.29004 2.24719 2.51836 1.84078 2.92476C1.43437 3.33117 1.20605 3.88238 1.20605 4.45713V19.6268C1.20605 20.2015 1.43437 20.7527 1.84078 21.1591C2.24719 21.5655 2.7984 21.7938 3.37314 21.7938H18.5428C19.1175 21.7938 19.6687 21.5655 20.0751 21.1591C20.4815 20.7527 20.7099 20.2015 20.7099 19.6268V12.0419" stroke="#5228F4" stroke-width="2.5" stroke-linecap="round" stroke-linejoin="round"/>
<path d="M17.8652 1.88368C18.2963 1.45262 18.881 1.21045 19.4906 1.21045C20.1002 1.21045 20.6848 1.45262 21.1159 1.88368C21.5469 2.31474 21.7891 2.89938 21.7891 3.50899C21.7891 4.11861 21.5469 4.70325 21.1159 5.13431L11.3499 14.9014C11.0926 15.1584 10.7748 15.3466 10.4256 15.4486L7.31261 16.3587C7.21937 16.3859 7.12054 16.3876 7.02645 16.3635C6.93237 16.3394 6.8465 16.2904 6.77782 16.2217C6.70915 16.1531 6.66019 16.0672 6.63609 15.9731C6.61199 15.879 6.61362 15.7802 6.64081 15.687L7.55099 12.5739C7.65341 12.2251 7.84196 11.9076 8.09926 11.6507L17.8652 1.88368Z" stroke="#5228F4" stroke-width="2.5" stroke-linecap="round" stroke-linejoin="round"/>
</g>
<defs>
<clipPath id="clip0_668_179">
<rect width="23" height="23" fill="white"/>
</clipPath>
</defs>
</svg>
