<svg width="48" height="48" viewBox="0 0 48 48" fill="none" xmlns="http://www.w3.org/2000/svg">
<path fill-rule="evenodd" clip-rule="evenodd" d="M3.99219 7.04844L7.04746 3.99316L13.4014 10.3472C16.3282 8.07182 20.006 6.71688 24.0003 6.71688C27.9927 6.71688 31.6689 8.07058 34.595 10.344L40.9459 3.99316L44.0012 7.04844L37.6511 13.3986C39.9277 16.3258 41.2835 20.0046 41.2835 24.0001C41.2835 27.9944 39.9285 31.6721 37.6532 34.5989L44.0009 40.9466L40.9456 44.0019L34.5978 37.654C31.6712 39.9288 27.9939 41.2833 24.0003 41.2833C20.0048 41.2833 16.3259 39.9275 13.3987 37.6509L7.04776 44.0019L3.99249 40.9466L10.3442 34.5949C8.07073 31.6688 6.71703 27.9925 6.71703 24.0001C6.71703 20.0064 8.07158 16.3291 10.3463 13.4026L3.99219 7.04844ZM13.2038 16.2601C11.6386 18.4394 10.717 21.1121 10.717 24.0001C10.717 26.8868 11.6378 29.5584 13.2018 31.7373L20.9414 23.9977L13.2038 16.2601ZM23.9967 27.0529L16.2561 34.7936C18.4362 36.3605 21.1105 37.2833 24.0003 37.2833C26.8882 37.2833 29.5609 36.3617 31.7403 34.7965L23.9967 27.0529ZM34.7957 31.7414L27.052 23.9977L34.7937 16.2559C36.3607 18.4361 37.2835 21.1103 37.2835 24.0001C37.2835 26.8886 36.3615 29.5618 34.7957 31.7414ZM23.9967 20.9424L16.2589 13.2046C18.4385 11.6389 21.1117 10.7169 24.0003 10.7169C26.887 10.7169 29.5586 11.6377 31.7374 13.2016L23.9967 20.9424Z" fill="#5228F4"/>
</svg>
