<svg width="46" height="46" viewBox="0 0 46 46" fill="none" xmlns="http://www.w3.org/2000/svg">
<path d="M6.11111 6.15094L10.3333 11.8868M13.8519 4L15.2593 6.86792M24.4074 4V8.30189M34.2593 4.71698L33.5556 7.58491M41.2963 6.86792L39.1852 10.4528M39.8889 33.3962L41.2963 34.8302M35.6667 35.5472L38.4815 41.283M23.7037 37.6981V41.283M13.8519 36.9811L11.037 42M6.11111 34.8302L4 36.9811M8.22222 15.4717C8.90772 20.7628 7.78166 22.6689 4 24.7925C10.0751 27.1228 9.15037 29.1629 8.22222 32.6792C15.4489 30.3838 17.5086 31.6767 18.7778 36.9811C23.1765 31.4858 25.6452 31.9211 30.037 36.9811C31.1382 30.8691 32.7709 29.2933 38.4815 31.2453C37.1661 25.621 37.8219 23.6572 42 22.6415C37.6831 19.4172 36.6401 17.5553 38.4815 14.0377C32.3363 15.4214 29.9226 14.6373 28.6296 9.01887C24.001 14.7137 21.599 14.8005 17.3704 9.01887C17.3704 9.01887 16.6219 14.5073 14.8356 15.7673C13.0493 17.0273 8.22222 15.4717 8.22222 15.4717Z" stroke="black" stroke-width="2" stroke-linecap="round" stroke-linejoin="round"/>
</svg>
