<svg width="48" height="48" viewBox="0 0 48 48" fill="none" xmlns="http://www.w3.org/2000/svg">
<path d="M22 4V14H26V4H22Z" fill="#5228F4"/>
<path d="M22 34V44H26V34H22Z" fill="#5228F4"/>
<path d="M14.8008 16.6004L10.8008 13.6004L13.2008 10.4004L17.2008 13.4004L14.8008 16.6004Z" fill="#5228F4"/>
<path d="M37.1992 13.6004L33.1992 16.6004L30.7992 13.4004L34.7992 10.4004L37.1992 13.6004Z" fill="#5228F4"/>
<path d="M14.8008 32.3996L10.8008 35.3996L13.2008 38.5996L17.2008 35.5996L14.8008 32.3996Z" fill="#5228F4"/>
<path d="M37.1992 35.3996L33.1992 32.3996L30.7992 35.5996L34.7992 38.5996L37.1992 35.3996Z" fill="#5228F4"/>
<path d="M14 26H4V22H14V26Z" fill="#5228F4"/>
<path d="M34 26H44V22H34V26Z" fill="#5228F4"/>
</svg>
