<svg width="24" height="24" viewBox="0 0 24 24" fill="none" xmlns="http://www.w3.org/2000/svg">
<path d="M11.4337 6.39844H12.561C12.6641 6.39844 12.7485 6.48282 12.7485 6.58594V13.0383C12.7485 13.0992 12.7204 13.1555 12.6712 13.1906L8.79694 16.0195C8.71257 16.0805 8.59538 16.0641 8.53444 15.9797L7.86413 15.0656C7.80085 14.9789 7.8196 14.8617 7.90397 14.8031L11.2462 12.3867V6.58594C11.2462 6.48282 11.3305 6.39844 11.4337 6.39844ZM6.2821 8.16094L2.6071 9.0586C2.48991 9.08672 2.37507 8.99766 2.37507 8.87813L2.35632 5.09297C2.35632 4.93594 2.53678 4.84688 2.65866 4.94532L6.35241 7.83047C6.38033 7.85207 6.40158 7.8811 6.41373 7.91424C6.42588 7.94738 6.42842 7.98328 6.42108 8.0178C6.41373 8.05232 6.39679 8.08407 6.37221 8.10939C6.34762 8.13471 6.31639 8.15258 6.2821 8.16094ZM2.35163 15.218L3.68053 14.7609C3.72687 14.7451 3.77758 14.7479 3.82181 14.769C3.86605 14.79 3.90031 14.8275 3.91725 14.8734C3.96178 14.993 4.00866 15.1102 4.05788 15.2273C4.47507 16.2141 5.07272 17.1023 5.83678 17.8641C6.59236 18.622 7.48781 19.2261 8.4735 19.643C9.49462 20.0747 10.5922 20.2963 11.7008 20.2945C12.8212 20.2945 13.9063 20.0766 14.9282 19.643C15.9139 19.2261 16.8093 18.622 17.5649 17.8641C18.3266 17.1023 18.9243 16.2141 19.3438 15.2273C19.7732 14.2057 19.9931 13.1082 19.9907 12C19.9907 10.8797 19.7727 9.79219 19.3391 8.77032C18.9219 7.7836 18.3243 6.89532 17.5602 6.1336C16.8046 5.37567 15.9092 4.77154 14.9235 4.35469C13.9063 3.9211 12.8188 3.70313 11.6985 3.70313C10.5782 3.70313 9.49303 3.9211 8.47116 4.35469C7.48547 4.77154 6.59002 5.37567 5.83444 6.1336C5.59538 6.375 5.37038 6.62578 5.16413 6.89063L3.76257 5.79375C5.6071 3.43594 8.47819 1.91953 11.7032 1.92188C17.3188 1.92422 21.8282 6.48516 21.7719 12.1031C21.7157 17.6227 17.2274 22.0781 11.6985 22.0781C7.35085 22.0781 3.64772 19.3219 2.23678 15.4617C2.20163 15.3633 2.25319 15.2531 2.35163 15.218Z" fill="black"/>
</svg>
