<svg width="24" height="24" viewBox="0 0 24 24" fill="none" xmlns="http://www.w3.org/2000/svg">
<path d="M10.45 15.5C10.85 15.9 11.3667 16.096 12 16.088C12.6333 16.08 13.1 15.8507 13.4 15.4L17.625 9.075C17.775 8.84167 17.7543 8.629 17.563 8.437C17.3717 8.245 17.159 8.22433 16.925 8.375L10.6 12.6C10.15 12.9 9.91267 13.3583 9.888 13.975C9.86333 14.5917 10.0507 15.1 10.45 15.5ZM12 4C12.6 4 13.1917 4.05 13.775 4.15C14.3583 4.25 14.925 4.40833 15.475 4.625C15.7417 4.725 16.025 4.91267 16.325 5.188C16.625 5.46333 16.7083 5.72567 16.575 5.975C16.4417 6.22433 16.1417 6.391 15.675 6.475C15.2083 6.559 14.8333 6.55067 14.55 6.45C14.1333 6.3 13.7127 6.18767 13.288 6.113C12.8633 6.03833 12.434 6.00067 12 6C9.78333 6 7.89567 6.77933 6.337 8.338C4.77833 9.89667 3.99933 11.784 4 14C4 14.7 4.096 15.3917 4.288 16.075C4.48 16.7583 4.75067 17.4 5.1 18H18.9C19.2833 17.3667 19.5627 16.7083 19.738 16.025C19.9133 15.3417 20.0007 14.6333 20 13.9C20 13.4667 19.9623 13.0417 19.887 12.625C19.8117 12.2083 19.6993 11.8 19.55 11.4C19.45 11.1167 19.4333 10.8417 19.5 10.575C19.5667 10.3083 19.7167 10.0833 19.95 9.9C20.1667 9.73333 20.4043 9.68333 20.663 9.75C20.9217 9.81667 21.1007 9.96667 21.2 10.2C21.45 10.7833 21.6417 11.3793 21.775 11.988C21.9083 12.5967 21.9833 13.2173 22 13.85C22.0167 14.8 21.9083 15.7083 21.675 16.575C21.4417 17.4417 21.1 18.2667 20.65 19.05C20.4667 19.35 20.2167 19.5833 19.9 19.75C19.5833 19.9167 19.25 20 18.9 20H5.1C4.75 20 4.41667 19.9167 4.1 19.75C3.78333 19.5833 3.53333 19.35 3.35 19.05C2.91667 18.3 2.58333 17.5043 2.35 16.663C2.11667 15.8217 2 14.934 2 14C2 12.6167 2.26267 11.321 2.788 10.113C3.31333 8.905 4.03 7.84667 4.938 6.938C5.846 6.02933 6.90833 5.31267 8.125 4.788C9.34167 4.26333 10.6333 4.00067 12 4Z" fill="black"/>
</svg>
