<svg width="18" height="18" viewBox="0 0 18 18" fill="none" xmlns="http://www.w3.org/2000/svg">
<path fill-rule="evenodd" clip-rule="evenodd" d="M16.2803 1.71967C16.5732 2.01256 16.5732 2.48744 16.2803 2.78033L2.78033 16.2803C2.48744 16.5732 2.01256 16.5732 1.71967 16.2803C1.42678 15.9874 1.42678 15.5126 1.71967 15.2197L15.2197 1.71967C15.5126 1.42678 15.9874 1.42678 16.2803 1.71967Z" fill="#FEFEFE"/>
<path d="M9.43934 9H9C8.58579 9 8.25 9.33579 8.25 9.75V10.1893L9.43934 9Z" fill="#FEFEFE"/>
<path d="M8.29748 12.2632C8.40407 12.5476 8.67839 12.75 9 12.75H13.5C13.9142 12.75 14.25 12.4142 14.25 12V9.75C14.25 9.33579 13.9142 9 13.5 9H11.5607L8.29748 12.2632Z" fill="#FEFEFE"/>
<path d="M15.3885 3.05081C15.2646 3.01767 15.1344 3 15 3H3C2.17157 3 1.5 3.67157 1.5 4.5V13.5C1.5 14.3284 2.17157 15 3 15H3.43934L4.93934 13.5H3V4.5H13.9393L15.3885 3.05081Z" fill="#FEFEFE"/>
<path d="M16.4492 4.11147L15 5.56066V13.5H7.06066L5.56066 15H15C15.8284 15 16.5 14.3284 16.5 13.5V4.5C16.5 4.36563 16.4823 4.23539 16.4492 4.11147Z" fill="#FEFEFE"/>
</svg>
