<svg width="24" height="24" viewBox="0 0 24 24" fill="none" xmlns="http://www.w3.org/2000/svg">
<path fill-rule="evenodd" clip-rule="evenodd" d="M7.0067 20.6641C8.52785 21.5408 10.253 22.0015 12.0087 22C14.66 21.9973 17.202 20.9429 19.0768 19.0681C20.9516 17.1933 22.006 14.6513 22.0087 12C22.0087 11.7348 21.9033 11.4804 21.7158 11.2929C21.5282 11.1054 21.2739 11 21.0087 11C20.7435 11 20.4891 11.1054 20.3016 11.2929C20.114 11.4804 20.0087 11.7348 20.0087 12C20.0113 13.9382 19.3093 15.8112 18.0335 17.2702C16.7577 18.7293 14.995 19.6748 13.0738 19.9308C11.1526 20.1867 9.2039 19.7356 7.5906 18.6615C5.97731 17.5874 4.80945 15.9634 4.30455 14.0922C3.79965 12.2209 3.99215 10.2299 4.84618 8.49008C5.70021 6.75021 7.15754 5.38009 8.94673 4.63492C10.7359 3.88974 12.735 3.82032 14.5716 4.43958C15.8092 4.85688 16.9161 5.56773 17.8042 6.5H15.3838C15.1186 6.5 14.8642 6.60536 14.6767 6.79289C14.4891 6.98043 14.3838 7.23478 14.3838 7.5C14.3838 7.76522 14.4891 8.01957 14.6767 8.20711C14.8642 8.39464 15.1186 8.5 15.3838 8.5H19.8838C20.149 8.5 20.4034 8.39464 20.5909 8.20711C20.7784 8.01957 20.8838 7.76522 20.8838 7.5V3C20.8838 2.73478 20.7784 2.48043 20.5909 2.29289C20.4034 2.10536 20.149 2 19.8838 2C19.6186 2 19.3642 2.10536 19.1767 2.29289C18.9891 2.48043 18.8838 2.73478 18.8838 3V4.74649C18.3152 4.20692 17.6829 3.7338 16.9982 3.3387C15.4775 2.46117 13.7526 1.99947 11.997 2C10.2413 2.00053 8.51668 2.46329 6.99656 3.34174C5.47644 4.22018 4.21439 5.48336 3.33729 7.00426C2.4602 8.52516 1.99898 10.2502 2 12.0059C2.00103 13.7615 2.46427 15.486 3.34315 17.0059C4.22202 18.5258 5.48556 19.7875 7.0067 20.6641Z" fill="black"/>
</svg>
