<svg width="24" height="24" viewBox="0 0 24 24" fill="none" xmlns="http://www.w3.org/2000/svg">
<circle cx="12" cy="13" r="7" fill="#5228F4"/>
<path fill-rule="evenodd" clip-rule="evenodd" d="M9 2C9 1.44772 9.44772 1 10 1H14C14.5523 1 15 1.44772 15 2C15 2.55228 14.5523 3 14 3H10C9.44772 3 9 2.55228 9 2ZM18.2929 3.29289C18.6834 2.90237 19.3166 2.90237 19.7071 3.29289L21.7071 5.29289C22.0976 5.68342 22.0976 6.31658 21.7071 6.70711C21.3166 7.09763 20.6834 7.09763 20.2929 6.70711L18.2929 4.70711C17.9024 4.31658 17.9024 3.68342 18.2929 3.29289ZM12 6C10.1435 6 8.36301 6.7375 7.05025 8.05025C5.7375 9.36301 5 11.1435 5 13C5 14.8565 5.7375 16.637 7.05025 17.9497C8.36301 19.2625 10.1435 20 12 20C13.8565 20 15.637 19.2625 16.9497 17.9497C18.2625 16.637 19 14.8565 19 13C19 11.1435 18.2625 9.36301 16.9497 8.05025C15.637 6.7375 13.8565 6 12 6ZM5.63604 6.63604C7.32387 4.94821 9.61305 4 12 4C14.3869 4 16.6761 4.94821 18.364 6.63604C20.0518 8.32387 21 10.6131 21 13C21 15.3869 20.0518 17.6761 18.364 19.364C16.6761 21.0518 14.3869 22 12 22C9.61305 22 7.32387 21.0518 5.63604 19.364C3.94821 17.6761 3 15.3869 3 13C3 10.6131 3.94821 8.32387 5.63604 6.63604ZM12 8C12.5523 8 13 8.44772 13 9V13C13 13.5523 12.5523 14 12 14C11.4477 14 11 13.5523 11 13V9C11 8.44772 11.4477 8 12 8Z" fill="#FEFEFE"/>
</svg>
